<?xml version="1.0" encoding="UTF-8"?>
<svg viewBox="-62 -40 345.5 518" style="max-width:100%" xmlns="http://www.w3.org/2000/svg"><rect x="-62" y="-40" width="345.5" height="518" fill="white"/><defs><marker id="arrowhead" markerWidth="10" markerHeight="7" refX="0" refY="3.5" orient="auto" markerUnits="userSpaceOnUse"><polygon points="0 0, 10 3.5, 0 7" fill="#444444"/></marker><marker id="arrowhead-thick" markerWidth="14" markerHeight="10" refX="0" refY="5" orient="auto" markerUnits="userSpaceOnUse"><polygon points="0 0, 14 5, 0 10" fill="#444444"/></marker><marker id="arrowhead-reverse" markerWidth="10" markerHeight="7" refX="10" refY="3.5" orient="auto" markerUnits="userSpaceOnUse"><polygon points="10 0, 0 3.5, 10 7" fill="#444444"/></marker><marker id="arrowhead-1" markerWidth="10" markerHeight="7" refX="0" refY="3.5" orient="auto" markerUnits="userSpaceOnUse"><polygon points="0 0, 10 3.5, 0 7" fill="#1565c0"/></marker><marker id="arrowhead-thick-1" markerWidth="14" markerHeight="10" refX="0" refY="5" orient="auto" markerUnits="userSpaceOnUse"><polygon points="0 0, 14 5, 0 10" fill="#1565c0"/></marker><marker id="arrowhead-reverse-1" markerWidth="10" markerHeight="7" refX="10" refY="3.5" orient="auto" markerUnits="userSpaceOnUse"><polygon points="10 0, 0 3.5, 10 7" fill="#1565c0"/></marker><marker id="arrowhead-2" markerWidth="10" markerHeight="7" refX="0" refY="3.5" orient="auto" markerUnits="userSpaceOnUse"><polygon points="0 0, 10 3.5, 0 7" fill="#e65100"/></marker><marker id="arrowhead-thick-2" markerWidth="14" markerHeight="10" refX="0" refY="5" orient="auto" markerUnits="userSpaceOnUse"><polygon points="0 0, 14 5, 0 10" fill="#e65100"/></marker><marker id="arrowhead-reverse-2" markerWidth="10" markerHeight="7" refX="10" refY="3.5" orient="auto" markerUnits="userSpaceOnUse"><polygon points="10 0, 0 3.5, 10 7" fill="#e65100"/></marker><marker id="arrowhead-3" markerWidth="10" markerHeight="7" refX="0" refY="3.5" orient="auto" markerUnits="userSpaceOnUse"><polygon points="0 0, 10 3.5, 0 7" fill="#f9a825"/></marker><marker id="arrowhead-thick-3" markerWidth="14" markerHeight="10" refX="0" refY="5" orient="auto" markerUnits="userSpaceOnUse"><polygon points="0 0, 14 5, 0 10" fill="#f9a825"/></marker><marker id="arrowhead-reverse-3" markerWidth="10" markerHeight="7" refX="10" refY="3.5" orient="auto" markerUnits="userSpaceOnUse"><polygon points="10 0, 0 3.5, 10 7" fill="#f9a825"/></marker><marker id="arrowhead-4" markerWidth="10" markerHeight="7" refX="0" refY="3.5" orient="auto" markerUnits="userSpaceOnUse"><polygon points="0 0, 10 3.5, 0 7" fill="#7b1fa2"/></marker><marker id="arrowhead-thick-4" markerWidth="14" markerHeight="10" refX="0" refY="5" orient="auto" markerUnits="userSpaceOnUse"><polygon points="0 0, 14 5, 0 10" fill="#7b1fa2"/></marker><marker id="arrowhead-reverse-4" markerWidth="10" markerHeight="7" refX="10" refY="3.5" orient="auto" markerUnits="userSpaceOnUse"><polygon points="10 0, 0 3.5, 10 7" fill="#7b1fa2"/></marker><marker id="arrowhead-5" markerWidth="10" markerHeight="7" refX="0" refY="3.5" orient="auto" markerUnits="userSpaceOnUse"><polygon points="0 0, 10 3.5, 0 7" fill="#ec407a"/></marker><marker id="arrowhead-thick-5" markerWidth="14" markerHeight="10" refX="0" refY="5" orient="auto" markerUnits="userSpaceOnUse"><polygon points="0 0, 14 5, 0 10" fill="#ec407a"/></marker><marker id="arrowhead-reverse-5" markerWidth="10" markerHeight="7" refX="10" refY="3.5" orient="auto" markerUnits="userSpaceOnUse"><polygon points="10 0, 0 3.5, 10 7" fill="#ec407a"/></marker><marker id="arrowhead-6" markerWidth="10" markerHeight="7" refX="0" refY="3.5" orient="auto" markerUnits="userSpaceOnUse"><polygon points="0 0, 10 3.5, 0 7" fill="#78909c"/></marker><marker id="arrowhead-thick-6" markerWidth="14" markerHeight="10" refX="0" refY="5" orient="auto" markerUnits="userSpaceOnUse"><polygon points="0 0, 14 5, 0 10" fill="#78909c"/></marker><marker id="arrowhead-reverse-6" markerWidth="10" markerHeight="7" refX="10" refY="3.5" orient="auto" markerUnits="userSpaceOnUse"><polygon points="10 0, 0 3.5, 10 7" fill="#78909c"/></marker></defs><path d="M 83.11520016077186 48.33520523748881 L 62.55760008038593 65.16760261874441 Q 42 82 42 97 L 42 112" fill="none" stroke="#1565c0" stroke-width="2" marker-end="url(#arrowhead-1)" marker-start="url(#arrowhead-reverse-1)"/><path d="M 35.114754098360656 164 L 28.557377049180328 184 Q 22 204 22 237.75 Q 22 271.5 22 305.25 Q 22 339 53.33957425099425 362.04868159200106 L 84.6791485019885 385.0973631840021" fill="none" stroke="#e65100" stroke-width="2" marker-end="url(#arrowhead-2)"/><path d="M 140.26493972636302 391.0220813652674 L 175.6324698631815 365.01104068263373 Q 211 339 211 305.25 Q 211 271.5 211 237.75 Q 211 204 152.2030163910542 182.77742011748109 L 93.40603278210841 161.5548402349622" fill="none" stroke="#f9a825" stroke-width="2" stroke-dasharray="6 4" marker-end="url(#arrowhead-3)"/><path d="M 53.5327868852459 164 L 64.51639344262296 184 Q 75.5 204 84.4963677433124 218.81109323594114 L 93.49273548662481 233.62218647188232" fill="none" stroke="#7b1fa2" stroke-width="4" marker-end="url(#arrowhead-thick-4)"/><path d="M 116.5 299 L 116.5 319 Q 116.5 339 116.5 359 L 116.5 379" fill="none" stroke="#ec407a" stroke-width="2"/><path d="M 128.0327868852459 42 L 139.01639344262296 62 Q 150 82 150 112.5 Q 150 143 150 173.5 Q 150 204 142.02615002431344 220.06671263757738 L 134.05230004862688 236.13342527515476" fill="none" stroke="#78909c" stroke-width="2" stroke-dasharray="6 4" marker-end="url(#arrowhead-6)"/><g transform="translate(64, 0)" data-node-id="client"><polygon points="21,0 84,0 105,21 84,42 21,42 0,21" fill="#d0e0f2" stroke="#1565c0" stroke-width="2"/><text x="52.5" y="21" text-anchor="middle" dominant-baseline="central" fill="#111111" font-size="14" font-family="system-ui, sans-serif">Client</text></g><g transform="translate(0, 122)" data-node-id="server"><rect x="0" y="0" width="84" height="42" rx="4" ry="4" fill="#ffffff" stroke="#222222" stroke-width="2"/><text x="42" y="21" text-anchor="middle" dominant-baseline="central" fill="#111111" font-size="14" font-family="system-ui, sans-serif">Server</text></g><g transform="translate(87, 379)" data-node-id="db"><circle cx="29.5" cy="29.5" r="29.5" fill="#fadccc" stroke="#e65100" stroke-width="2"/><text x="29.5" y="29.5" text-anchor="middle" dominant-baseline="central" fill="#111111" font-size="14" font-family="system-ui, sans-serif">DB</text></g><g transform="translate(69.5, 244)" data-node-id="cache"><ellipse cx="47" cy="27.5" rx="47" ry="27.5" fill="#e5d2ec" stroke="#7b1fa2" stroke-width="2"/><text x="47" y="27.5" text-anchor="middle" dominant-baseline="central" fill="#111111" font-size="14" font-family="system-ui, sans-serif">Cache</text></g><g transform="translate(42, 68)"><rect x="-64" y="-10" width="128" height="20" fill="white" stroke="#bbb" stroke-width="0.5" rx="3"/><text text-anchor="middle" dominant-baseline="central" fill="#333333" font-size="13" font-family="system-ui, sans-serif">request/response</text></g><g transform="translate(22, 257.5)"><rect x="-25.5" y="-10" width="51" height="20" fill="white" stroke="#bbb" stroke-width="0.5" rx="3"/><text text-anchor="middle" dominant-baseline="central" fill="#333333" font-size="13" font-family="system-ui, sans-serif">query</text></g><g transform="translate(211, 257.5)"><rect x="-32.5" y="-10" width="65" height="20" fill="white" stroke="#bbb" stroke-width="0.5" rx="3"/><text text-anchor="middle" dominant-baseline="central" fill="#333333" font-size="13" font-family="system-ui, sans-serif">results</text></g><g transform="translate(75.5, 190)"><rect x="-22" y="-10" width="44" height="20" fill="white" stroke="#bbb" stroke-width="0.5" rx="3"/><text text-anchor="middle" dominant-baseline="central" fill="#333333" font-size="13" font-family="system-ui, sans-serif">sync</text></g><g transform="translate(116.5, 325)"><rect x="-29" y="-10" width="58" height="20" fill="white" stroke="#bbb" stroke-width="0.5" rx="3"/><text text-anchor="middle" dominant-baseline="central" fill="#333333" font-size="13" font-family="system-ui, sans-serif">linked</text></g><g transform="translate(150, 129)"><rect x="-36" y="-10" width="72" height="20" fill="white" stroke="#bbb" stroke-width="0.5" rx="3"/><text text-anchor="middle" dominant-baseline="central" fill="#333333" font-size="13" font-family="system-ui, sans-serif">fallback</text></g></svg>