<?xml version="1.0" encoding="UTF-8"?>
<svg viewBox="-40 -43.75 980 310.5" style="max-width:100%" xmlns="http://www.w3.org/2000/svg"><rect x="-40" y="-43.75" width="980" height="310.5" fill="white"/><defs><marker id="arrowhead" markerWidth="10" markerHeight="7" refX="0" refY="3.5" orient="auto" markerUnits="userSpaceOnUse"><polygon points="0 0, 10 3.5, 0 7" fill="#444444"/></marker><marker id="arrowhead-thick" markerWidth="14" markerHeight="10" refX="0" refY="5" orient="auto" markerUnits="userSpaceOnUse"><polygon points="0 0, 14 5, 0 10" fill="#444444"/></marker><marker id="arrowhead-reverse" markerWidth="10" markerHeight="7" refX="10" refY="3.5" orient="auto" markerUnits="userSpaceOnUse"><polygon points="10 0, 0 3.5, 10 7" fill="#444444"/></marker><marker id="arrowhead-1" markerWidth="10" markerHeight="7" refX="0" refY="3.5" orient="auto" markerUnits="userSpaceOnUse"><polygon points="0 0, 10 3.5, 0 7" fill="#1565c0"/></marker><marker id="arrowhead-thick-1" markerWidth="14" markerHeight="10" refX="0" refY="5" orient="auto" markerUnits="userSpaceOnUse"><polygon points="0 0, 14 5, 0 10" fill="#1565c0"/></marker><marker id="arrowhead-reverse-1" markerWidth="10" markerHeight="7" refX="10" refY="3.5" orient="auto" markerUnits="userSpaceOnUse"><polygon points="10 0, 0 3.5, 10 7" fill="#1565c0"/></marker><marker id="arrowhead-2" markerWidth="10" markerHeight="7" refX="0" refY="3.5" orient="auto" markerUnits="userSpaceOnUse"><polygon points="0 0, 10 3.5, 0 7" fill="#2e7d32"/></marker><marker id="arrowhead-thick-2" markerWidth="14" markerHeight="10" refX="0" refY="5" orient="auto" markerUnits="userSpaceOnUse"><polygon points="0 0, 14 5, 0 10" fill="#2e7d32"/></marker><marker id="arrowhead-reverse-2" markerWidth="10" markerHeight="7" refX="10" refY="3.5" orient="auto" markerUnits="userSpaceOnUse"><polygon points="10 0, 0 3.5, 10 7" fill="#2e7d32"/></marker><marker id="arrowhead-3" markerWidth="10" markerHeight="7" refX="0" refY="3.5" orient="auto" markerUnits="userSpaceOnUse"><polygon points="0 0, 10 3.5, 0 7" fill="#d32f2f"/></marker><marker id="arrowhead-thick-3" markerWidth="14" markerHeight="10" refX="0" refY="5" orient="auto" markerUnits="userSpaceOnUse"><polygon points="0 0, 14 5, 0 10" fill="#d32f2f"/></marker><marker id="arrowhead-reverse-3" markerWidth="10" markerHeight="7" refX="10" refY="3.5" orient="auto" markerUnits="userSpaceOnUse"><polygon points="10 0, 0 3.5, 10 7" fill="#d32f2f"/></marker><marker id="arrowhead-4" markerWidth="10" markerHeight="7" refX="0" refY="3.5" orient="auto" markerUnits="userSpaceOnUse"><polygon points="0 0, 10 3.5, 0 7" fill="#7b1fa2"/></marker><marker id="arrowhead-thick-4" markerWidth="14" markerHeight="10" refX="0" refY="5" orient="auto" markerUnits="userSpaceOnUse"><polygon points="0 0, 14 5, 0 10" fill="#7b1fa2"/></marker><marker id="arrowhead-reverse-4" markerWidth="10" markerHeight="7" refX="10" refY="3.5" orient="auto" markerUnits="userSpaceOnUse"><polygon points="10 0, 0 3.5, 10 7" fill="#7b1fa2"/></marker><marker id="arrowhead-5" markerWidth="10" markerHeight="7" refX="0" refY="3.5" orient="auto" markerUnits="userSpaceOnUse"><polygon points="0 0, 10 3.5, 0 7" fill="#e65100"/></marker><marker id="arrowhead-thick-5" markerWidth="14" markerHeight="10" refX="0" refY="5" orient="auto" markerUnits="userSpaceOnUse"><polygon points="0 0, 14 5, 0 10" fill="#e65100"/></marker><marker id="arrowhead-reverse-5" markerWidth="10" markerHeight="7" refX="10" refY="3.5" orient="auto" markerUnits="userSpaceOnUse"><polygon points="10 0, 0 3.5, 10 7" fill="#e65100"/></marker></defs><g><rect x="167" y="-3.75" width="561" height="132.5" fill="#f5f5f5" fill-opacity="1" stroke="#888888" stroke-width="1.5" stroke-dasharray="6 3" rx="8" ry="8"/><text x="177" y="12.25" fill="#555555" font-size="13" font-family="system-ui, sans-serif" font-weight="bold">pipeline</text></g><path d="M 73.16346587631304 108.6828852312971 L 88.74839960482319 91.96644261564856 Q 104.33333333333333 75.25 113 75.25 Q 121.66666666666666 75.25 130.33333333333331 75.25 Q 139 75.25 147.66666666666666 75.25 Q 156.33333333333331 75.25 165 75.25 Q 173.66666666666669 75.25 177.33333333333334 75.25 L 181 75.25" fill="none" stroke="#1565c0" stroke-width="2" marker-end="url(#arrowhead-1)"/><path d="M 270 75.25 L 278.66666666666663 75.25 Q 287.3333333333333 75.25 296 75.25 Q 304.6666666666667 75.25 313.33333333333337 75.25 Q 322 75.25 330.66666666666663 75.25 Q 339.3333333333333 75.25 348 75.25 Q 356.6666666666667 75.25 360.33333333333337 75.25 L 364 75.25" fill="none" stroke="#1565c0" stroke-width="2" marker-end="url(#arrowhead-1)"/><path d="M 478.873320537428 69.13483685220729 L 493.60332693538066 67.19241842610364 Q 508.3333333333333 65.25 517 65.25 Q 525.6666666666666 65.25 534.3333333333333 65.25 Q 543 65.25 551.6666666666667 65.25 Q 560.3333333333334 65.25 569 65.25 Q 577.6666666666666 65.25 581.3333333333333 65.25 L 585 65.25" fill="none" stroke="#2e7d32" stroke-width="2" marker-end="url(#arrowhead-2)"/><path d="M 468.01447890636484 86.84098926943996 L 488.1739061198491 93.42049463471997 Q 508.3333333333333 100 517 100 Q 525.6666666666666 100 534.3333333333333 100 Q 543 100 551.6666666666667 100 Q 560.3333333333334 100 569 100 Q 577.6666666666666 100 603.6414462874686 138.23897371090217 L 629.6162259082705 176.47794742180434" fill="none" stroke="#d32f2f" stroke-width="2" stroke-dasharray="6 4" marker-end="url(#arrowhead-3)"/><path d="M 704 65.25 L 712.6666666666667 65.25 Q 721.3333333333334 65.25 730 65.25 Q 738.6666666666666 65.25 747.3333333333333 65.25 Q 756 65.25 764.6666666666667 65.25 Q 773.3333333333334 65.25 782 65.25 Q 790.6666666666666 65.25 792.3333333333333 65.25 L 794 65.25" fill="none" stroke="#7b1fa2" stroke-width="4" marker-end="url(#arrowhead-thick-4)"/><path d="M 613 205.75 L 595.3333333333333 205.75 Q 577.6666666666666 205.75 569 205.75 Q 560.3333333333334 205.75 551.6666666666667 205.75 Q 543 205.75 534.3333333333333 205.75 Q 525.6666666666666 205.75 517 205.75 Q 508.3333333333333 205.75 470.41666666666663 205.75 Q 432.5 205.75 394.58333333333337 205.75 Q 356.6666666666667 205.75 348 205.75 Q 339.3333333333333 205.75 330.66666666666663 205.75 Q 322 205.75 313.33333333333337 205.75 Q 304.6666666666667 205.75 296 205.75 Q 287.3333333333333 205.75 258.91666666666663 205.75 Q 230.5 205.75 202.08333333333334 205.75 Q 173.66666666666669 205.75 165 205.75 Q 156.33333333333331 205.75 147.66666666666666 205.75 Q 139 205.75 130.33333333333331 205.75 Q 121.66666666666666 205.75 113 205.75 Q 104.33333333333333 205.75 92.15799338370974 192.69069701293796 L 79.98265343408615 179.63139402587595" fill="none" stroke="#e65100" stroke-width="2" stroke-dasharray="6 4" marker-end="url(#arrowhead-5)"/><g transform="translate(0, 97)" data-node-id="src"><circle cx="43.5" cy="43.5" r="43.5" fill="#fdd9d7" stroke="#f44336" stroke-width="2"/><text x="43.5" y="43.5" text-anchor="middle" dominant-baseline="central" fill="#111111" font-size="14" font-family="system-ui, sans-serif">Source</text></g><g transform="translate(191, 54.25)" data-node-id="parse"><rect x="0" y="0" width="79" height="42" rx="4" ry="4" fill="#ffffff" stroke="#222222" stroke-width="2"/><text x="39.5" y="21" text-anchor="middle" dominant-baseline="central" fill="#111111" font-size="14" font-family="system-ui, sans-serif">Parse</text></g><g transform="translate(374, 45.75)" data-node-id="validate"><polygon points="58.5,0 117,29.5 58.5,59 0,29.5" fill="#fff8e1" stroke="#f9a825" stroke-width="2"/><text x="58.5" y="29.5" text-anchor="middle" dominant-baseline="central" fill="#111111" font-size="14" font-family="system-ui, sans-serif">Valid?</text></g><g transform="translate(595, 44.25)" data-node-id="transform"><rect x="0" y="0" width="109" height="42" rx="4" ry="4" fill="#ffffff" stroke="#222222" stroke-width="2"/><text x="54.5" y="21" text-anchor="middle" dominant-baseline="central" fill="#111111" font-size="14" font-family="system-ui, sans-serif">Transform</text></g><g transform="translate(613, 184.75)" data-node-id="error"><rect x="0" y="0" width="73" height="42" rx="4" ry="4" fill="#f6d5d5" stroke="#d32f2f" stroke-width="2"/><text x="36.5" y="21" text-anchor="middle" dominant-baseline="central" fill="#111111" font-size="14" font-family="system-ui, sans-serif">Error</text></g><g transform="translate(808, 44.25)" data-node-id="out"><rect x="0" y="0" width="92" height="42" rx="21" ry="21" fill="#dbefdc" stroke="#4caf50" stroke-width="2"/><text x="46" y="21" text-anchor="middle" dominant-baseline="central" fill="#111111" font-size="14" font-family="system-ui, sans-serif">Output</text></g><g transform="translate(543, 51.25)"><rect x="-18.5" y="-10" width="37" height="20" fill="white" stroke="#bbb" stroke-width="0.5" rx="3"/><text text-anchor="middle" dominant-baseline="central" fill="#333333" font-size="13" font-family="system-ui, sans-serif">yes</text></g><g transform="translate(543, 86)"><rect x="-15" y="-10" width="30" height="20" fill="white" stroke="#bbb" stroke-width="0.5" rx="3"/><text text-anchor="middle" dominant-baseline="central" fill="#333333" font-size="13" font-family="system-ui, sans-serif">no</text></g><g transform="translate(756, 51.25)"><rect x="-22" y="-10" width="44" height="20" fill="white" stroke="#bbb" stroke-width="0.5" rx="3"/><text text-anchor="middle" dominant-baseline="central" fill="#333333" font-size="13" font-family="system-ui, sans-serif">done</text></g><g transform="translate(322, 191.75)"><rect x="-25.5" y="-10" width="51" height="20" fill="white" stroke="#bbb" stroke-width="0.5" rx="3"/><text text-anchor="middle" dominant-baseline="central" fill="#333333" font-size="13" font-family="system-ui, sans-serif">retry</text></g></svg>