<?xml version="1.0" encoding="UTF-8"?>
<svg viewBox="-40 -40 256.5 515" style="max-width:100%" xmlns="http://www.w3.org/2000/svg"><rect x="-40" y="-40" width="256.5" height="515" fill="white"/><defs><marker id="arrowhead" markerWidth="10" markerHeight="7" refX="0" refY="3.5" orient="auto" markerUnits="userSpaceOnUse"><polygon points="0 0, 10 3.5, 0 7" fill="#444444"/></marker><marker id="arrowhead-thick" markerWidth="14" markerHeight="10" refX="0" refY="5" orient="auto" markerUnits="userSpaceOnUse"><polygon points="0 0, 14 5, 0 10" fill="#444444"/></marker><marker id="arrowhead-reverse" markerWidth="10" markerHeight="7" refX="10" refY="3.5" orient="auto" markerUnits="userSpaceOnUse"><polygon points="10 0, 0 3.5, 10 7" fill="#444444"/></marker><marker id="arrowhead-1565c0" markerWidth="10" markerHeight="7" refX="0" refY="3.5" orient="auto" markerUnits="userSpaceOnUse"><polygon points="0 0, 10 3.5, 0 7" fill="#1565c0"/></marker><marker id="arrowhead-thick-1565c0" markerWidth="14" markerHeight="10" refX="0" refY="5" orient="auto" markerUnits="userSpaceOnUse"><polygon points="0 0, 14 5, 0 10" fill="#1565c0"/></marker><marker id="arrowhead-reverse-1565c0" markerWidth="10" markerHeight="7" refX="10" refY="3.5" orient="auto" markerUnits="userSpaceOnUse"><polygon points="10 0, 0 3.5, 10 7" fill="#1565c0"/></marker><marker id="arrowhead-e65100" markerWidth="10" markerHeight="7" refX="0" refY="3.5" orient="auto" markerUnits="userSpaceOnUse"><polygon points="0 0, 10 3.5, 0 7" fill="#e65100"/></marker><marker id="arrowhead-thick-e65100" markerWidth="14" markerHeight="10" refX="0" refY="5" orient="auto" markerUnits="userSpaceOnUse"><polygon points="0 0, 14 5, 0 10" fill="#e65100"/></marker><marker id="arrowhead-reverse-e65100" markerWidth="10" markerHeight="7" refX="10" refY="3.5" orient="auto" markerUnits="userSpaceOnUse"><polygon points="10 0, 0 3.5, 10 7" fill="#e65100"/></marker><marker id="arrowhead-f9a825" markerWidth="10" markerHeight="7" refX="0" refY="3.5" orient="auto" markerUnits="userSpaceOnUse"><polygon points="0 0, 10 3.5, 0 7" fill="#f9a825"/></marker><marker id="arrowhead-thick-f9a825" markerWidth="14" markerHeight="10" refX="0" refY="5" orient="auto" markerUnits="userSpaceOnUse"><polygon points="0 0, 14 5, 0 10" fill="#f9a825"/></marker><marker id="arrowhead-reverse-f9a825" markerWidth="10" markerHeight="7" refX="10" refY="3.5" orient="auto" markerUnits="userSpaceOnUse"><polygon points="10 0, 0 3.5, 10 7" fill="#f9a825"/></marker><marker id="arrowhead-7b1fa2" markerWidth="10" markerHeight="7" refX="0" refY="3.5" orient="auto" markerUnits="userSpaceOnUse"><polygon points="0 0, 10 3.5, 0 7" fill="#7b1fa2"/></marker><marker id="arrowhead-thick-7b1fa2" markerWidth="14" markerHeight="10" refX="0" refY="5" orient="auto" markerUnits="userSpaceOnUse"><polygon points="0 0, 14 5, 0 10" fill="#7b1fa2"/></marker><marker id="arrowhead-reverse-7b1fa2" markerWidth="10" markerHeight="7" refX="10" refY="3.5" orient="auto" markerUnits="userSpaceOnUse"><polygon points="10 0, 0 3.5, 10 7" fill="#7b1fa2"/></marker><marker id="arrowhead-ec407a" markerWidth="10" markerHeight="7" refX="0" refY="3.5" orient="auto" markerUnits="userSpaceOnUse"><polygon points="0 0, 10 3.5, 0 7" fill="#ec407a"/></marker><marker id="arrowhead-thick-ec407a" markerWidth="14" markerHeight="10" refX="0" refY="5" orient="auto" markerUnits="userSpaceOnUse"><polygon points="0 0, 14 5, 0 10" fill="#ec407a"/></marker><marker id="arrowhead-reverse-ec407a" markerWidth="10" markerHeight="7" refX="10" refY="3.5" orient="auto" markerUnits="userSpaceOnUse"><polygon points="10 0, 0 3.5, 10 7" fill="#ec407a"/></marker><marker id="arrowhead-78909c" markerWidth="10" markerHeight="7" refX="0" refY="3.5" orient="auto" markerUnits="userSpaceOnUse"><polygon points="0 0, 10 3.5, 0 7" fill="#78909c"/></marker><marker id="arrowhead-thick-78909c" markerWidth="14" markerHeight="10" refX="0" refY="5" orient="auto" markerUnits="userSpaceOnUse"><polygon points="0 0, 14 5, 0 10" fill="#78909c"/></marker><marker id="arrowhead-reverse-78909c" markerWidth="10" markerHeight="7" refX="10" refY="3.5" orient="auto" markerUnits="userSpaceOnUse"><polygon points="10 0, 0 3.5, 10 7" fill="#78909c"/></marker></defs><path d="M 85.42235288151652 48.309819656366564 L 64.71117644075827 65.15490982818328 Q 44 82 44 97 L 44 112" fill="none" stroke="#1565c0" stroke-width="2" marker-end="url(#arrowhead-1565c0)" marker-start="url(#arrowhead-reverse-1565c0)"/><path d="M 37.114754098360656 164 L 30.557377049180328 184 Q 24 204 24 237.75 Q 24 271.5 24 305.25 Q 24 339 56.05006027813267 361.9410957780318 L 88.10012055626534 384.8821915560636" fill="none" stroke="#e65100" stroke-width="2" marker-end="url(#arrowhead-e65100)"/><path d="M 141.76833222169924 390.7026674623627 L 177.8841661108496 364.85133373118134 Q 214 339 214 305.25 Q 214 271.5 214 237.75 Q 214 204 155.70619903651172 183.0828125954542 L 97.41239807302345 162.1656251909084" fill="none" stroke="#f9a825" stroke-width="2" stroke-dasharray="6 4" marker-end="url(#arrowhead-f9a825)"/><path d="M 55.36065573770492 164 L 66.18032786885246 184 Q 77 204 86.28313877195046 218.9193301692061 L 95.56627754390092 233.8386603384122" fill="none" stroke="#7b1fa2" stroke-width="4" marker-end="url(#arrowhead-thick-7b1fa2)"/><path d="M 119 299 L 119 319 Q 119 339 119 359 L 119 379" fill="none" stroke="#ec407a" stroke-width="2"/><path d="M 130.36065573770492 42 L 141.18032786885246 62 Q 152 82 152 112.5 Q 152 143 152 173.5 Q 152 204 144.14833566690947 220.0602224995033 L 136.29667133381898 236.12044499900665" fill="none" stroke="#78909c" stroke-width="2" stroke-dasharray="6 4" marker-end="url(#arrowhead-78909c)"/><g transform="translate(61.5, 0)" data-node-id="client"><polygon points="23,0 92,0 115,21 92,42 23,42 0,21" fill="#d0e0f2" stroke="#1565c0" stroke-width="2"/><text x="57.5" y="21" text-anchor="middle" dominant-baseline="central" fill="#111111" font-size="14" font-family="system-ui, sans-serif">Client</text></g><g transform="translate(0, 122)" data-node-id="server"><rect x="0" y="0" width="88" height="42" rx="4" ry="4" fill="#ffffff" stroke="#222222" stroke-width="2"/><text x="44" y="21" text-anchor="middle" dominant-baseline="central" fill="#111111" font-size="14" font-family="system-ui, sans-serif">Server</text></g><g transform="translate(91, 379)" data-node-id="db"><circle cx="28" cy="28" r="28" fill="#fadccc" stroke="#e65100" stroke-width="2"/><text x="28" y="28" text-anchor="middle" dominant-baseline="central" fill="#111111" font-size="14" font-family="system-ui, sans-serif">DB</text></g><g transform="translate(73, 244)" data-node-id="cache"><ellipse cx="46" cy="27.5" rx="46" ry="27.5" fill="#e5d2ec" stroke="#7b1fa2" stroke-width="2"/><text x="46" y="27.5" text-anchor="middle" dominant-baseline="central" fill="#111111" font-size="14" font-family="system-ui, sans-serif">Cache</text></g><g transform="translate(44, 68)"><rect x="-64" y="-10" width="128" height="20" fill="white" stroke="#bbb" stroke-width="0.5" rx="3"/><text text-anchor="middle" dominant-baseline="central" fill="#333333" font-size="13" font-family="system-ui, sans-serif">request/response</text></g><g transform="translate(24, 257.5)"><rect x="-25.5" y="-10" width="51" height="20" fill="white" stroke="#bbb" stroke-width="0.5" rx="3"/><text text-anchor="middle" dominant-baseline="central" fill="#333333" font-size="13" font-family="system-ui, sans-serif">query</text></g><g transform="translate(214, 257.5)"><rect x="-32.5" y="-10" width="65" height="20" fill="white" stroke="#bbb" stroke-width="0.5" rx="3"/><text text-anchor="middle" dominant-baseline="central" fill="#333333" font-size="13" font-family="system-ui, sans-serif">results</text></g><g transform="translate(77, 190)"><rect x="-22" y="-10" width="44" height="20" fill="white" stroke="#bbb" stroke-width="0.5" rx="3"/><text text-anchor="middle" dominant-baseline="central" fill="#333333" font-size="13" font-family="system-ui, sans-serif">sync</text></g><g transform="translate(119, 325)"><rect x="-29" y="-10" width="58" height="20" fill="white" stroke="#bbb" stroke-width="0.5" rx="3"/><text text-anchor="middle" dominant-baseline="central" fill="#333333" font-size="13" font-family="system-ui, sans-serif">linked</text></g><g transform="translate(152, 129)"><rect x="-36" y="-10" width="72" height="20" fill="white" stroke="#bbb" stroke-width="0.5" rx="3"/><text text-anchor="middle" dominant-baseline="central" fill="#333333" font-size="13" font-family="system-ui, sans-serif">fallback</text></g></svg>