<?xml version="1.0" encoding="UTF-8"?>
<svg viewBox="-40 -40 806 153" style="max-width:100%" xmlns="http://www.w3.org/2000/svg"><rect x="-40" y="-40" width="806" height="153" fill="white"/><defs><marker id="arrowhead" markerWidth="10" markerHeight="7" refX="0" refY="3.5" orient="auto" markerUnits="userSpaceOnUse"><polygon points="0 0, 10 3.5, 0 7" fill="#444444"/></marker><marker id="arrowhead-thick" markerWidth="14" markerHeight="10" refX="0" refY="5" orient="auto" markerUnits="userSpaceOnUse"><polygon points="0 0, 14 5, 0 10" fill="#444444"/></marker><marker id="arrowhead-reverse" markerWidth="10" markerHeight="7" refX="10" refY="3.5" orient="auto" markerUnits="userSpaceOnUse"><polygon points="10 0, 0 3.5, 10 7" fill="#444444"/></marker><marker id="arrowhead-1" markerWidth="10" markerHeight="7" refX="0" refY="3.5" orient="auto" markerUnits="userSpaceOnUse"><polygon points="0 0, 10 3.5, 0 7" fill="#1565c0"/></marker><marker id="arrowhead-thick-1" markerWidth="14" markerHeight="10" refX="0" refY="5" orient="auto" markerUnits="userSpaceOnUse"><polygon points="0 0, 14 5, 0 10" fill="#1565c0"/></marker><marker id="arrowhead-reverse-1" markerWidth="10" markerHeight="7" refX="10" refY="3.5" orient="auto" markerUnits="userSpaceOnUse"><polygon points="10 0, 0 3.5, 10 7" fill="#1565c0"/></marker><marker id="arrowhead-2" markerWidth="10" markerHeight="7" refX="0" refY="3.5" orient="auto" markerUnits="userSpaceOnUse"><polygon points="0 0, 10 3.5, 0 7" fill="#e65100"/></marker><marker id="arrowhead-thick-2" markerWidth="14" markerHeight="10" refX="0" refY="5" orient="auto" markerUnits="userSpaceOnUse"><polygon points="0 0, 14 5, 0 10" fill="#e65100"/></marker><marker id="arrowhead-reverse-2" markerWidth="10" markerHeight="7" refX="10" refY="3.5" orient="auto" markerUnits="userSpaceOnUse"><polygon points="10 0, 0 3.5, 10 7" fill="#e65100"/></marker><marker id="arrowhead-3" markerWidth="10" markerHeight="7" refX="0" refY="3.5" orient="auto" markerUnits="userSpaceOnUse"><polygon points="0 0, 10 3.5, 0 7" fill="#7b1fa2"/></marker><marker id="arrowhead-thick-3" markerWidth="14" markerHeight="10" refX="0" refY="5" orient="auto" markerUnits="userSpaceOnUse"><polygon points="0 0, 14 5, 0 10" fill="#7b1fa2"/></marker><marker id="arrowhead-reverse-3" markerWidth="10" markerHeight="7" refX="10" refY="3.5" orient="auto" markerUnits="userSpaceOnUse"><polygon points="10 0, 0 3.5, 10 7" fill="#7b1fa2"/></marker><marker id="arrowhead-4" markerWidth="10" markerHeight="7" refX="0" refY="3.5" orient="auto" markerUnits="userSpaceOnUse"><polygon points="0 0, 10 3.5, 0 7" fill="#2e7d32"/></marker><marker id="arrowhead-thick-4" markerWidth="14" markerHeight="10" refX="0" refY="5" orient="auto" markerUnits="userSpaceOnUse"><polygon points="0 0, 14 5, 0 10" fill="#2e7d32"/></marker><marker id="arrowhead-reverse-4" markerWidth="10" markerHeight="7" refX="10" refY="3.5" orient="auto" markerUnits="userSpaceOnUse"><polygon points="10 0, 0 3.5, 10 7" fill="#2e7d32"/></marker></defs><path d="M 73 36.5 L 93 36.5 Q 113 36.5 128 36.5 L 143 36.5" fill="none" stroke="#1565c0" stroke-width="2" marker-end="url(#arrowhead-1)"/><path d="M 237 36.5 L 257 36.5 Q 277 36.5 292 36.5 L 307 36.5" fill="none" stroke="#e65100" stroke-width="2" stroke-dasharray="6 4" marker-end="url(#arrowhead-2)"/><path d="M 401 36.5 L 421 36.5 Q 441 36.5 454 36.5 L 467 36.5" fill="none" stroke="#7b1fa2" stroke-width="4" marker-end="url(#arrowhead-thick-3)"/><path d="M 565 36.5 L 585 36.5 Q 605 36.5 620 36.5 L 635 36.5" fill="none" stroke="#2e7d32" stroke-width="2" marker-end="url(#arrowhead-4)"/><g transform="translate(0, 0)" data-node-id="a"><circle cx="36.5" cy="36.5" r="36.5" fill="#cceeff" stroke="#00aaff" stroke-width="2"/><text x="36.5" y="36.5" text-anchor="middle" dominant-baseline="central" fill="#111111" font-size="14" font-family="system-ui, sans-serif">Start</text></g><g transform="translate(153, 15.5)" data-node-id="b"><rect x="0" y="0" width="84" height="42" rx="4" ry="4" fill="#ffffff" stroke="#222222" stroke-width="2"/><text x="42" y="21" text-anchor="middle" dominant-baseline="central" fill="#111111" font-size="14" font-family="system-ui, sans-serif">Step 1</text></g><g transform="translate(317, 15.5)" data-node-id="c"><rect x="0" y="0" width="84" height="42" rx="4" ry="4" fill="#ffffff" stroke="#222222" stroke-width="2"/><text x="42" y="21" text-anchor="middle" dominant-baseline="central" fill="#111111" font-size="14" font-family="system-ui, sans-serif">Step 2</text></g><g transform="translate(481, 15.5)" data-node-id="d"><rect x="0" y="0" width="84" height="42" rx="4" ry="4" fill="#ffffff" stroke="#222222" stroke-width="2"/><text x="42" y="21" text-anchor="middle" dominant-baseline="central" fill="#111111" font-size="14" font-family="system-ui, sans-serif">Step 3</text></g><g transform="translate(645, 15.5)" data-node-id="e"><rect x="0" y="0" width="81" height="42" rx="21" ry="21" fill="#cceecc" stroke="#00aa00" stroke-width="2"/><text x="40.5" y="21" text-anchor="middle" dominant-baseline="central" fill="#111111" font-size="14" font-family="system-ui, sans-serif">Done</text></g><g transform="translate(113, 22.5)"><rect x="-22" y="-10" width="44" height="20" fill="white" stroke="#bbb" stroke-width="0.5" rx="3"/><text text-anchor="middle" dominant-baseline="central" fill="#333333" font-size="13" font-family="system-ui, sans-serif">flow</text></g><g transform="translate(277, 22.5)"><rect x="-29" y="-10" width="58" height="20" fill="white" stroke="#bbb" stroke-width="0.5" rx="3"/><text text-anchor="middle" dominant-baseline="central" fill="#333333" font-size="13" font-family="system-ui, sans-serif">dashed</text></g><g transform="translate(441, 22.5)"><rect x="-25.5" y="-10" width="51" height="20" fill="white" stroke="#bbb" stroke-width="0.5" rx="3"/><text text-anchor="middle" dominant-baseline="central" fill="#333333" font-size="13" font-family="system-ui, sans-serif">thick</text></g><g transform="translate(605, 22.5)"><rect x="-29" y="-10" width="58" height="20" fill="white" stroke="#bbb" stroke-width="0.5" rx="3"/><text text-anchor="middle" dominant-baseline="central" fill="#333333" font-size="13" font-family="system-ui, sans-serif">finish</text></g></svg>