<?xml version="1.0" encoding="UTF-8"?>
<svg viewBox="-40 -40 824 160" style="max-width:100%" xmlns="http://www.w3.org/2000/svg"><rect x="-40" y="-40" width="824" height="160" fill="white"/><defs><marker id="arrowhead" markerWidth="10" markerHeight="7" refX="0" refY="3.5" orient="auto" markerUnits="userSpaceOnUse"><polygon points="0 0, 10 3.5, 0 7" fill="#444444"/></marker><marker id="arrowhead-thick" markerWidth="14" markerHeight="10" refX="0" refY="5" orient="auto" markerUnits="userSpaceOnUse"><polygon points="0 0, 14 5, 0 10" fill="#444444"/></marker><marker id="arrowhead-reverse" markerWidth="10" markerHeight="7" refX="10" refY="3.5" orient="auto" markerUnits="userSpaceOnUse"><polygon points="10 0, 0 3.5, 10 7" fill="#444444"/></marker><marker id="arrowhead-1" markerWidth="10" markerHeight="7" refX="0" refY="3.5" orient="auto" markerUnits="userSpaceOnUse"><polygon points="0 0, 10 3.5, 0 7" fill="#1565c0"/></marker><marker id="arrowhead-thick-1" markerWidth="14" markerHeight="10" refX="0" refY="5" orient="auto" markerUnits="userSpaceOnUse"><polygon points="0 0, 14 5, 0 10" fill="#1565c0"/></marker><marker id="arrowhead-reverse-1" markerWidth="10" markerHeight="7" refX="10" refY="3.5" orient="auto" markerUnits="userSpaceOnUse"><polygon points="10 0, 0 3.5, 10 7" fill="#1565c0"/></marker><marker id="arrowhead-2" markerWidth="10" markerHeight="7" refX="0" refY="3.5" orient="auto" markerUnits="userSpaceOnUse"><polygon points="0 0, 10 3.5, 0 7" fill="#e65100"/></marker><marker id="arrowhead-thick-2" markerWidth="14" markerHeight="10" refX="0" refY="5" orient="auto" markerUnits="userSpaceOnUse"><polygon points="0 0, 14 5, 0 10" fill="#e65100"/></marker><marker id="arrowhead-reverse-2" markerWidth="10" markerHeight="7" refX="10" refY="3.5" orient="auto" markerUnits="userSpaceOnUse"><polygon points="10 0, 0 3.5, 10 7" fill="#e65100"/></marker><marker id="arrowhead-3" markerWidth="10" markerHeight="7" refX="0" refY="3.5" orient="auto" markerUnits="userSpaceOnUse"><polygon points="0 0, 10 3.5, 0 7" fill="#7b1fa2"/></marker><marker id="arrowhead-thick-3" markerWidth="14" markerHeight="10" refX="0" refY="5" orient="auto" markerUnits="userSpaceOnUse"><polygon points="0 0, 14 5, 0 10" fill="#7b1fa2"/></marker><marker id="arrowhead-reverse-3" markerWidth="10" markerHeight="7" refX="10" refY="3.5" orient="auto" markerUnits="userSpaceOnUse"><polygon points="10 0, 0 3.5, 10 7" fill="#7b1fa2"/></marker><marker id="arrowhead-4" markerWidth="10" markerHeight="7" refX="0" refY="3.5" orient="auto" markerUnits="userSpaceOnUse"><polygon points="0 0, 10 3.5, 0 7" fill="#2e7d32"/></marker><marker id="arrowhead-thick-4" markerWidth="14" markerHeight="10" refX="0" refY="5" orient="auto" markerUnits="userSpaceOnUse"><polygon points="0 0, 14 5, 0 10" fill="#2e7d32"/></marker><marker id="arrowhead-reverse-4" markerWidth="10" markerHeight="7" refX="10" refY="3.5" orient="auto" markerUnits="userSpaceOnUse"><polygon points="10 0, 0 3.5, 10 7" fill="#2e7d32"/></marker></defs><path d="M 80 40 L 100 40 Q 120 40 135 40 L 150 40" fill="none" stroke="#1565c0" stroke-width="2" marker-end="url(#arrowhead-1)"/><path d="M 248 40 L 268 40 Q 288 40 303 40 L 318 40" fill="none" stroke="#e65100" stroke-width="2" stroke-dasharray="6 4" marker-end="url(#arrowhead-2)"/><path d="M 416 40 L 436 40 Q 456 40 469 40 L 482 40" fill="none" stroke="#7b1fa2" stroke-width="4" marker-end="url(#arrowhead-thick-3)"/><path d="M 584 40 L 604 40 Q 624 40 639 40 L 654 40" fill="none" stroke="#2e7d32" stroke-width="2" marker-end="url(#arrowhead-4)"/><g transform="translate(0, 0)" data-node-id="a"><circle cx="40" cy="40" r="40" fill="#cceeff" stroke="#00aaff" stroke-width="2"/><text x="40" y="40" text-anchor="middle" dominant-baseline="central" fill="#111111" font-size="14" font-family="system-ui, sans-serif">Start</text></g><g transform="translate(160, 19)" data-node-id="b"><rect x="0" y="0" width="88" height="42" rx="4" ry="4" fill="#ffffff" stroke="#222222" stroke-width="2"/><text x="44" y="21" text-anchor="middle" dominant-baseline="central" fill="#111111" font-size="14" font-family="system-ui, sans-serif">Step 1</text></g><g transform="translate(328, 19)" data-node-id="c"><rect x="0" y="0" width="88" height="42" rx="4" ry="4" fill="#ffffff" stroke="#222222" stroke-width="2"/><text x="44" y="21" text-anchor="middle" dominant-baseline="central" fill="#111111" font-size="14" font-family="system-ui, sans-serif">Step 2</text></g><g transform="translate(496, 19)" data-node-id="d"><rect x="0" y="0" width="88" height="42" rx="4" ry="4" fill="#ffffff" stroke="#222222" stroke-width="2"/><text x="44" y="21" text-anchor="middle" dominant-baseline="central" fill="#111111" font-size="14" font-family="system-ui, sans-serif">Step 3</text></g><g transform="translate(664, 19)" data-node-id="e"><rect x="0" y="0" width="80" height="42" rx="21" ry="21" fill="#cceecc" stroke="#00aa00" stroke-width="2"/><text x="40" y="21" text-anchor="middle" dominant-baseline="central" fill="#111111" font-size="14" font-family="system-ui, sans-serif">Done</text></g><g transform="translate(120, 26)"><rect x="-22" y="-10" width="44" height="20" fill="white" stroke="#bbb" stroke-width="0.5" rx="3"/><text text-anchor="middle" dominant-baseline="central" fill="#333333" font-size="13" font-family="system-ui, sans-serif">flow</text></g><g transform="translate(288, 26)"><rect x="-29" y="-10" width="58" height="20" fill="white" stroke="#bbb" stroke-width="0.5" rx="3"/><text text-anchor="middle" dominant-baseline="central" fill="#333333" font-size="13" font-family="system-ui, sans-serif">dashed</text></g><g transform="translate(456, 26)"><rect x="-25.5" y="-10" width="51" height="20" fill="white" stroke="#bbb" stroke-width="0.5" rx="3"/><text text-anchor="middle" dominant-baseline="central" fill="#333333" font-size="13" font-family="system-ui, sans-serif">thick</text></g><g transform="translate(624, 26)"><rect x="-29" y="-10" width="58" height="20" fill="white" stroke="#bbb" stroke-width="0.5" rx="3"/><text text-anchor="middle" dominant-baseline="central" fill="#333333" font-size="13" font-family="system-ui, sans-serif">finish</text></g></svg>