<?xml version="1.0" encoding="UTF-8"?>
<svg viewBox="-40 -88 889 272" style="max-width:100%" xmlns="http://www.w3.org/2000/svg"><rect x="-40" y="-88" width="889" height="272" fill="white"/><defs><marker id="arrowhead" markerWidth="10" markerHeight="7" refX="0" refY="3.5" orient="auto" markerUnits="userSpaceOnUse"><polygon points="0 0, 10 3.5, 0 7" fill="#444444"/></marker><marker id="arrowhead-thick" markerWidth="14" markerHeight="10" refX="0" refY="5" orient="auto" markerUnits="userSpaceOnUse"><polygon points="0 0, 14 5, 0 10" fill="#444444"/></marker><marker id="arrowhead-reverse" markerWidth="10" markerHeight="7" refX="10" refY="3.5" orient="auto" markerUnits="userSpaceOnUse"><polygon points="10 0, 0 3.5, 10 7" fill="#444444"/></marker><marker id="arrowhead-1" markerWidth="10" markerHeight="7" refX="0" refY="3.5" orient="auto" markerUnits="userSpaceOnUse"><polygon points="0 0, 10 3.5, 0 7" fill="#1565c0"/></marker><marker id="arrowhead-thick-1" markerWidth="14" markerHeight="10" refX="0" refY="5" orient="auto" markerUnits="userSpaceOnUse"><polygon points="0 0, 14 5, 0 10" fill="#1565c0"/></marker><marker id="arrowhead-reverse-1" markerWidth="10" markerHeight="7" refX="10" refY="3.5" orient="auto" markerUnits="userSpaceOnUse"><polygon points="10 0, 0 3.5, 10 7" fill="#1565c0"/></marker><marker id="arrowhead-2" markerWidth="10" markerHeight="7" refX="0" refY="3.5" orient="auto" markerUnits="userSpaceOnUse"><polygon points="0 0, 10 3.5, 0 7" fill="#2e7d32"/></marker><marker id="arrowhead-thick-2" markerWidth="14" markerHeight="10" refX="0" refY="5" orient="auto" markerUnits="userSpaceOnUse"><polygon points="0 0, 14 5, 0 10" fill="#2e7d32"/></marker><marker id="arrowhead-reverse-2" markerWidth="10" markerHeight="7" refX="10" refY="3.5" orient="auto" markerUnits="userSpaceOnUse"><polygon points="10 0, 0 3.5, 10 7" fill="#2e7d32"/></marker><marker id="arrowhead-3" markerWidth="10" markerHeight="7" refX="0" refY="3.5" orient="auto" markerUnits="userSpaceOnUse"><polygon points="0 0, 10 3.5, 0 7" fill="#d32f2f"/></marker><marker id="arrowhead-thick-3" markerWidth="14" markerHeight="10" refX="0" refY="5" orient="auto" markerUnits="userSpaceOnUse"><polygon points="0 0, 14 5, 0 10" fill="#d32f2f"/></marker><marker id="arrowhead-reverse-3" markerWidth="10" markerHeight="7" refX="10" refY="3.5" orient="auto" markerUnits="userSpaceOnUse"><polygon points="10 0, 0 3.5, 10 7" fill="#d32f2f"/></marker><marker id="arrowhead-4" markerWidth="10" markerHeight="7" refX="0" refY="3.5" orient="auto" markerUnits="userSpaceOnUse"><polygon points="0 0, 10 3.5, 0 7" fill="#7b1fa2"/></marker><marker id="arrowhead-thick-4" markerWidth="14" markerHeight="10" refX="0" refY="5" orient="auto" markerUnits="userSpaceOnUse"><polygon points="0 0, 14 5, 0 10" fill="#7b1fa2"/></marker><marker id="arrowhead-reverse-4" markerWidth="10" markerHeight="7" refX="10" refY="3.5" orient="auto" markerUnits="userSpaceOnUse"><polygon points="10 0, 0 3.5, 10 7" fill="#7b1fa2"/></marker><marker id="arrowhead-5" markerWidth="10" markerHeight="7" refX="0" refY="3.5" orient="auto" markerUnits="userSpaceOnUse"><polygon points="0 0, 10 3.5, 0 7" fill="#e65100"/></marker><marker id="arrowhead-thick-5" markerWidth="14" markerHeight="10" refX="0" refY="5" orient="auto" markerUnits="userSpaceOnUse"><polygon points="0 0, 14 5, 0 10" fill="#e65100"/></marker><marker id="arrowhead-reverse-5" markerWidth="10" markerHeight="7" refX="10" refY="3.5" orient="auto" markerUnits="userSpaceOnUse"><polygon points="10 0, 0 3.5, 10 7" fill="#e65100"/></marker></defs><g><rect x="144" y="-48" width="512" height="132.5" fill="#f5f5f5" fill-opacity="1" stroke="#888888" stroke-width="1.5" stroke-dasharray="6 3" rx="8" ry="8"/><text x="154" y="-32" fill="#555555" font-size="13" font-family="system-ui, sans-serif" font-weight="bold">pipeline</text></g><path d="M 83.54128644968917 52.700086375746956 L 105.77064322484458 41.85004318787348 Q 128 31 143 31 L 158 31" fill="none" stroke="#1565c0" stroke-width="2" marker-end="url(#arrowhead-1)"/><path d="M 248 31 L 268 31 Q 288 31 303 31 L 318 31" fill="none" stroke="#1565c0" stroke-width="2" marker-end="url(#arrowhead-1)"/><path d="M 430.75471698113205 26.129716981132077 L 455.37735849056605 23.56485849056604 Q 480 21 495 21 L 510 21" fill="none" stroke="#2e7d32" stroke-width="2" marker-end="url(#arrowhead-2)"/><path d="M 411.8818565400844 45.812236286919834 L 445.9409282700422 63.90611814345992 Q 480 82 503.40180100771477 91.99451918037818 L 526.8036020154295 101.98903836075635" fill="none" stroke="#d32f2f" stroke-width="2" stroke-dasharray="6 4" marker-end="url(#arrowhead-3)"/><path d="M 632 21 L 652 21 Q 672 21 685 21 L 698 21" fill="none" stroke="#7b1fa2" stroke-width="4" marker-end="url(#arrowhead-thick-4)"/><path d="M 536 127.16666666666667 L 508 130.08333333333334 Q 480 133 432 133 Q 384 133 336 133 Q 288 133 248 133 Q 208 133 168 133 Q 128 133 107.84711570650296 118.36516735829382 L 87.69423141300592 103.73033471658763" fill="none" stroke="#e65100" stroke-width="2" stroke-dasharray="6 4" marker-end="url(#arrowhead-5)"/><g transform="translate(0, 28)" data-node-id="src"><circle cx="44" cy="44" r="44" fill="#fdd9d7" stroke="#f44336" stroke-width="2"/><text x="44" y="44" text-anchor="middle" dominant-baseline="central" fill="#111111" font-size="14" font-family="system-ui, sans-serif">Source</text></g><g transform="translate(168, 10)" data-node-id="parse"><rect x="0" y="0" width="80" height="42" rx="4" ry="4" fill="#ffffff" stroke="#222222" stroke-width="2"/><text x="40" y="21" text-anchor="middle" dominant-baseline="central" fill="#111111" font-size="14" font-family="system-ui, sans-serif">Parse</text></g><g transform="translate(328, 1.5)" data-node-id="validate"><polygon points="56,0 112,29.5 56,59 0,29.5" fill="#fff8e1" stroke="#f9a825" stroke-width="2"/><text x="56" y="29.5" text-anchor="middle" dominant-baseline="central" fill="#111111" font-size="14" font-family="system-ui, sans-serif">Valid</text></g><g transform="translate(520, 0)" data-node-id="transform"><rect x="0" y="0" width="112" height="42" rx="4" ry="4" fill="#ffffff" stroke="#222222" stroke-width="2"/><text x="56" y="21" text-anchor="middle" dominant-baseline="central" fill="#111111" font-size="14" font-family="system-ui, sans-serif">Transform</text></g><g transform="translate(536, 102)" data-node-id="error"><rect x="0" y="0" width="80" height="42" rx="4" ry="4" fill="#f6d5d5" stroke="#d32f2f" stroke-width="2"/><text x="40" y="21" text-anchor="middle" dominant-baseline="central" fill="#111111" font-size="14" font-family="system-ui, sans-serif">Error</text></g><g transform="translate(712, 0)" data-node-id="out"><rect x="0" y="0" width="97" height="42" rx="21" ry="21" fill="#dbefdc" stroke="#4caf50" stroke-width="2"/><text x="48.5" y="21" text-anchor="middle" dominant-baseline="central" fill="#111111" font-size="14" font-family="system-ui, sans-serif">Output</text></g><g transform="translate(480, 7)"><rect x="-18.5" y="-10" width="37" height="20" fill="white" stroke="#bbb" stroke-width="0.5" rx="3"/><text text-anchor="middle" dominant-baseline="central" fill="#333333" font-size="13" font-family="system-ui, sans-serif">yes</text></g><g transform="translate(480, 68)"><rect x="-15" y="-10" width="30" height="20" fill="white" stroke="#bbb" stroke-width="0.5" rx="3"/><text text-anchor="middle" dominant-baseline="central" fill="#333333" font-size="13" font-family="system-ui, sans-serif">no</text></g><g transform="translate(672, 7)"><rect x="-22" y="-10" width="44" height="20" fill="white" stroke="#bbb" stroke-width="0.5" rx="3"/><text text-anchor="middle" dominant-baseline="central" fill="#333333" font-size="13" font-family="system-ui, sans-serif">done</text></g><g transform="translate(288, 119)"><rect x="-25.5" y="-10" width="51" height="20" fill="white" stroke="#bbb" stroke-width="0.5" rx="3"/><text text-anchor="middle" dominant-baseline="central" fill="#333333" font-size="13" font-family="system-ui, sans-serif">retry</text></g></svg>