<?xml version="1.0" encoding="UTF-8"?>
<svg viewBox="-24 -48 727 858.5" style="max-width:100%" xmlns="http://www.w3.org/2000/svg"><rect x="-24" y="-48" width="727" height="858.5" fill="white"/><defs><marker id="arrowhead" markerWidth="10" markerHeight="7" refX="0" refY="3.5" orient="auto" markerUnits="userSpaceOnUse"><polygon points="0 0, 10 3.5, 0 7" fill="#444444"/></marker><marker id="arrowhead-thick" markerWidth="14" markerHeight="10" refX="0" refY="5" orient="auto" markerUnits="userSpaceOnUse"><polygon points="0 0, 14 5, 0 10" fill="#444444"/></marker><marker id="arrowhead-reverse" markerWidth="10" markerHeight="7" refX="10" refY="3.5" orient="auto" markerUnits="userSpaceOnUse"><polygon points="10 0, 0 3.5, 10 7" fill="#444444"/></marker></defs><g><rect x="26.5" y="-8" width="392.5" height="543.5" fill="#f5f5f5" fill-opacity="1" stroke="#888888" stroke-width="1.5" stroke-dasharray="6 3" rx="8" ry="8"/><text x="36.5" y="8" fill="#555555" font-size="13" font-family="system-ui, sans-serif" font-weight="bold">core</text></g><g><rect x="475" y="59.5" width="188" height="432" fill="#f5f5f5" fill-opacity="1" stroke="#888888" stroke-width="1.5" stroke-dasharray="6 3" rx="8" ry="8"/><text x="485" y="75.5" fill="#555555" font-size="13" font-family="system-ui, sans-serif" font-weight="bold">details</text></g><g><rect x="16" y="563.5" width="180" height="186" fill="#f5f5f5" fill-opacity="1" stroke="#888888" stroke-width="1.5" stroke-dasharray="6 3" rx="8" ry="8"/><text x="26" y="579.5" fill="#555555" font-size="13" font-family="system-ui, sans-serif" font-weight="bold">taxonomy</text></g><path d="M 161.5 134.205 L 175.41666666666669 124.6025 Q 189.33333333333334 115 198 115 Q 206.66666666666666 115 215.33333333333331 115 Q 224 115 232.66666666666666 115 Q 241.33333333333331 115 250 115 Q 258.6666666666667 115 262.33333333333337 115 L 266 115" fill="none" stroke="#444444" stroke-width="2" marker-end="url(#arrowhead)"/><path d="M 395 115 L 403.66666666666663 115 Q 412.3333333333333 115 421 115 Q 429.6666666666667 115 438.33333333333337 115 Q 447 115 455.66666666666663 115 Q 464.3333333333333 115 473 115 Q 481.6666666666667 115 486.37724042351675 118.64080605252725 L 491.0878141803668 122.2816121050545" fill="none" stroke="#444444" stroke-width="2" marker-end="url(#arrowhead)"/><path d="M 381.5 382.63665943600864 L 396.91666666666663 361.5683297180043 Q 412.3333333333333 340.5 421 340.5 Q 429.6666666666667 340.5 438.33333333333337 340.5 Q 447 340.5 455.66666666666663 340.5 Q 464.3333333333333 340.5 473 340.5 Q 481.6666666666667 340.5 502.18668246090874 303.37600196003547 L 522.7066982551507 266.25200392007093" fill="none" stroke="#444444" stroke-width="2" marker-end="url(#arrowhead)"/><path d="M 172 668.5 L 180.66666666666669 668.5 Q 189.33333333333334 668.5 198 557 Q 206.66666666666666 445.5 215.33333333333331 445.5 Q 224 445.5 232.66666666666666 445.5 Q 241.33333333333331 445.5 250 445.5 Q 258.6666666666667 445.5 269.08333333333337 445.5 L 279.5 445.5" fill="none" stroke="#444444" stroke-width="2" marker-end="url(#arrowhead)"/><path d="M 62.758620689655174 725.5 L 51.37931034482759 740.5 Q 40 755.5 40 759.25 Q 40 763 73 766.75 Q 106 770.5 139 766.75 Q 172 763 172 759.25 Q 172 755.5 163.64262206204359 744.483456354512 L 155.28524412408714 733.466912709024" fill="none" stroke="#444444" stroke-width="2" marker-end="url(#arrowhead)"/><path d="M 158.38095238095238 238.5 L 173.85714285714286 258 Q 189.33333333333334 277.5 198 277.5 Q 206.66666666666666 277.5 215.33333333333331 277.5 Q 224 277.5 232.66666666666666 277.5 Q 241.33333333333331 277.5 250 277.5 Q 258.6666666666667 277.5 297.08333333333337 277.5 Q 335.5 277.5 373.91666666666663 277.5 Q 412.3333333333333 277.5 421 277.5 Q 429.6666666666667 277.5 438.33333333333337 277.5 Q 447 277.5 455.66666666666663 277.5 Q 464.3333333333333 277.5 473 277.5 Q 481.6666666666667 277.5 493.83111954105357 293.5180772582575 L 505.99557241544045 309.536154516515" fill="none" stroke="#444444" stroke-width="2" marker-end="url(#arrowhead)"/><path d="M 381.5 451.4869848156182 L 396.91666666666663 453.4934924078091 Q 412.3333333333333 455.5 421 455.5 Q 429.6666666666667 455.5 438.33333333333337 455.5 Q 447 455.5 455.66666666666663 455.5 Q 464.3333333333333 455.5 473 455.5 Q 481.6666666666667 455.5 486.27830533736335 452.1732835543448 L 490.88994400806 448.84656710868956" fill="none" stroke="#444444" stroke-width="2" marker-end="url(#arrowhead)"/><g transform="translate(50.5, 106.5)" data-node-id="user"><rect x="0" y="0" width="111" height="132" rx="4" ry="4" fill="#ffffff" stroke="#222222" stroke-width="2"/><text x="55.5" y="21" text-anchor="middle" dominant-baseline="central" fill="#111111" font-size="14" font-family="system-ui, sans-serif">User</text><text x="55.5" y="39" text-anchor="middle" dominant-baseline="central" fill="#111111" font-size="14" font-family="system-ui, sans-serif">---</text><text x="55.5" y="57" text-anchor="middle" dominant-baseline="central" fill="#111111" font-size="14" font-family="system-ui, sans-serif">id: PK</text><text x="55.5" y="75" text-anchor="middle" dominant-baseline="central" fill="#111111" font-size="14" font-family="system-ui, sans-serif">email</text><text x="55.5" y="93" text-anchor="middle" dominant-baseline="central" fill="#111111" font-size="14" font-family="system-ui, sans-serif">name</text><text x="55.5" y="111" text-anchor="middle" dominant-baseline="central" fill="#111111" font-size="14" font-family="system-ui, sans-serif">created_at</text></g><g transform="translate(276, 40)" data-node-id="order"><rect x="0" y="0" width="119" height="150" rx="4" ry="4" fill="#ffffff" stroke="#222222" stroke-width="2"/><text x="59.5" y="21" text-anchor="middle" dominant-baseline="central" fill="#111111" font-size="14" font-family="system-ui, sans-serif">Order</text><text x="59.5" y="39" text-anchor="middle" dominant-baseline="central" fill="#111111" font-size="14" font-family="system-ui, sans-serif">---</text><text x="59.5" y="57" text-anchor="middle" dominant-baseline="central" fill="#111111" font-size="14" font-family="system-ui, sans-serif">id: PK</text><text x="59.5" y="75" text-anchor="middle" dominant-baseline="central" fill="#111111" font-size="14" font-family="system-ui, sans-serif">user_id: FK</text><text x="59.5" y="93" text-anchor="middle" dominant-baseline="central" fill="#111111" font-size="14" font-family="system-ui, sans-serif">status</text><text x="59.5" y="111" text-anchor="middle" dominant-baseline="central" fill="#111111" font-size="14" font-family="system-ui, sans-serif">total</text><text x="59.5" y="129" text-anchor="middle" dominant-baseline="central" fill="#111111" font-size="14" font-family="system-ui, sans-serif">created_at</text></g><g transform="translate(289.5, 379.5)" data-node-id="product"><rect x="0" y="0" width="92" height="132" rx="4" ry="4" fill="#ffffff" stroke="#222222" stroke-width="2"/><text x="46" y="21" text-anchor="middle" dominant-baseline="central" fill="#111111" font-size="14" font-family="system-ui, sans-serif">Product</text><text x="46" y="39" text-anchor="middle" dominant-baseline="central" fill="#111111" font-size="14" font-family="system-ui, sans-serif">---</text><text x="46" y="57" text-anchor="middle" dominant-baseline="central" fill="#111111" font-size="14" font-family="system-ui, sans-serif">id: PK</text><text x="46" y="75" text-anchor="middle" dominant-baseline="central" fill="#111111" font-size="14" font-family="system-ui, sans-serif">name</text><text x="46" y="93" text-anchor="middle" dominant-baseline="central" fill="#111111" font-size="14" font-family="system-ui, sans-serif">price</text><text x="46" y="111" text-anchor="middle" dominant-baseline="central" fill="#111111" font-size="14" font-family="system-ui, sans-serif">stock</text></g><g transform="translate(499, 107.5)" data-node-id="order_item"><rect x="0" y="0" width="140" height="150" rx="4" ry="4" fill="#ffffff" stroke="#222222" stroke-width="2"/><text x="70" y="21" text-anchor="middle" dominant-baseline="central" fill="#111111" font-size="14" font-family="system-ui, sans-serif">OrderItem</text><text x="70" y="39" text-anchor="middle" dominant-baseline="central" fill="#111111" font-size="14" font-family="system-ui, sans-serif">---</text><text x="70" y="57" text-anchor="middle" dominant-baseline="central" fill="#111111" font-size="14" font-family="system-ui, sans-serif">id: PK</text><text x="70" y="75" text-anchor="middle" dominant-baseline="central" fill="#111111" font-size="14" font-family="system-ui, sans-serif">order_id: FK</text><text x="70" y="93" text-anchor="middle" dominant-baseline="central" fill="#111111" font-size="14" font-family="system-ui, sans-serif">product_id: FK</text><text x="70" y="111" text-anchor="middle" dominant-baseline="central" fill="#111111" font-size="14" font-family="system-ui, sans-serif">quantity</text><text x="70" y="129" text-anchor="middle" dominant-baseline="central" fill="#111111" font-size="14" font-family="system-ui, sans-serif">price</text></g><g transform="translate(40, 611.5)" data-node-id="category"><rect x="0" y="0" width="132" height="114" rx="4" ry="4" fill="#ffffff" stroke="#222222" stroke-width="2"/><text x="66" y="21" text-anchor="middle" dominant-baseline="central" fill="#111111" font-size="14" font-family="system-ui, sans-serif">Category</text><text x="66" y="39" text-anchor="middle" dominant-baseline="central" fill="#111111" font-size="14" font-family="system-ui, sans-serif">---</text><text x="66" y="57" text-anchor="middle" dominant-baseline="central" fill="#111111" font-size="14" font-family="system-ui, sans-serif">id: PK</text><text x="66" y="75" text-anchor="middle" dominant-baseline="central" fill="#111111" font-size="14" font-family="system-ui, sans-serif">name</text><text x="66" y="93" text-anchor="middle" dominant-baseline="central" fill="#111111" font-size="14" font-family="system-ui, sans-serif">parent_id: FK</text></g><g transform="translate(499, 317.5)" data-node-id="review"><rect x="0" y="0" width="140" height="150" rx="4" ry="4" fill="#ffffff" stroke="#222222" stroke-width="2"/><text x="70" y="21" text-anchor="middle" dominant-baseline="central" fill="#111111" font-size="14" font-family="system-ui, sans-serif">Review</text><text x="70" y="39" text-anchor="middle" dominant-baseline="central" fill="#111111" font-size="14" font-family="system-ui, sans-serif">---</text><text x="70" y="57" text-anchor="middle" dominant-baseline="central" fill="#111111" font-size="14" font-family="system-ui, sans-serif">id: PK</text><text x="70" y="75" text-anchor="middle" dominant-baseline="central" fill="#111111" font-size="14" font-family="system-ui, sans-serif">user_id: FK</text><text x="70" y="93" text-anchor="middle" dominant-baseline="central" fill="#111111" font-size="14" font-family="system-ui, sans-serif">product_id: FK</text><text x="70" y="111" text-anchor="middle" dominant-baseline="central" fill="#111111" font-size="14" font-family="system-ui, sans-serif">rating</text><text x="70" y="129" text-anchor="middle" dominant-baseline="central" fill="#111111" font-size="14" font-family="system-ui, sans-serif">comment</text></g><g transform="translate(224, 101)"><rect x="-18.5" y="-10" width="37" height="20" fill="white" stroke="#bbb" stroke-width="0.5" rx="3"/><text text-anchor="middle" dominant-baseline="central" fill="#333333" font-size="13" font-family="system-ui, sans-serif">1:N</text></g><g transform="translate(447, 101)"><rect x="-18.5" y="-10" width="37" height="20" fill="white" stroke="#bbb" stroke-width="0.5" rx="3"/><text text-anchor="middle" dominant-baseline="central" fill="#333333" font-size="13" font-family="system-ui, sans-serif">1:N</text></g><g transform="translate(447, 326.5)"><rect x="-18.5" y="-10" width="37" height="20" fill="white" stroke="#bbb" stroke-width="0.5" rx="3"/><text text-anchor="middle" dominant-baseline="central" fill="#333333" font-size="13" font-family="system-ui, sans-serif">1:N</text></g><g transform="translate(224, 431.5)"><rect x="-18.5" y="-10" width="37" height="20" fill="white" stroke="#bbb" stroke-width="0.5" rx="3"/><text text-anchor="middle" dominant-baseline="central" fill="#333333" font-size="13" font-family="system-ui, sans-serif">1:N</text></g><g transform="translate(106, 756.5)"><rect x="-36" y="-10" width="72" height="20" fill="white" stroke="#bbb" stroke-width="0.5" rx="3"/><text text-anchor="middle" dominant-baseline="central" fill="#333333" font-size="13" font-family="system-ui, sans-serif">self-ref</text></g><g transform="translate(335.5, 263.5)"><rect x="-18.5" y="-10" width="37" height="20" fill="white" stroke="#bbb" stroke-width="0.5" rx="3"/><text text-anchor="middle" dominant-baseline="central" fill="#333333" font-size="13" font-family="system-ui, sans-serif">1:N</text></g><g transform="translate(447, 441.5)"><rect x="-18.5" y="-10" width="37" height="20" fill="white" stroke="#bbb" stroke-width="0.5" rx="3"/><text text-anchor="middle" dominant-baseline="central" fill="#333333" font-size="13" font-family="system-ui, sans-serif">1:N</text></g></svg>