<?xml version="1.0" encoding="UTF-8"?>
<svg viewBox="-24 -40 995 328" style="max-width:100%" xmlns="http://www.w3.org/2000/svg"><rect x="-24" y="-40" width="995" height="328" fill="white"/><defs><marker id="arrowhead" markerWidth="10" markerHeight="7" refX="0" refY="3.5" orient="auto" markerUnits="userSpaceOnUse"><polygon points="0 0, 10 3.5, 0 7" fill="#444444"/></marker><marker id="arrowhead-thick" markerWidth="14" markerHeight="10" refX="0" refY="5" orient="auto" markerUnits="userSpaceOnUse"><polygon points="0 0, 14 5, 0 10" fill="#444444"/></marker><marker id="arrowhead-reverse" markerWidth="10" markerHeight="7" refX="10" refY="3.5" orient="auto" markerUnits="userSpaceOnUse"><polygon points="10 0, 0 3.5, 10 7" fill="#444444"/></marker></defs><g><rect x="16" y="98" width="915" height="150" fill="#f5f5f5" fill-opacity="1" stroke="#888888" stroke-width="1.5" stroke-dasharray="6 3" rx="8" ry="8"/><text x="26" y="114" fill="#555555" font-size="13" font-family="system-ui, sans-serif" font-weight="bold">features</text></g><path d="M 442.4049509144825 27.627649973293057 L 286.70247545724123 43.480491653313194 Q 131 59.33333333333333 131 68 Q 131 76.66666666666666 131 85.33333333333333 Q 131 94 131 102.66666666666666 Q 131 111.33333333333333 131 120 Q 131 128.66666666666669 131 132.33333333333334 L 131 136" fill="none" stroke="#444444" stroke-width="2" marker-end="url(#arrowhead)"/><path d="M 455.97412939800233 37.18982273013587 L 420.73706469900117 48.2615780317346 Q 385.5 59.33333333333333 385.5 68 Q 385.5 76.66666666666666 385.5 85.33333333333333 Q 385.5 94 385.5 102.66666666666666 Q 385.5 111.33333333333333 385.5 120 Q 385.5 128.66666666666669 385.5 132.33333333333334 L 385.5 136" fill="none" stroke="#444444" stroke-width="2" marker-end="url(#arrowhead)"/><path d="M 559.0258706019977 37.18982273013589 L 594.2629353009988 48.26157803173461 Q 629.5 59.33333333333333 629.5 68 Q 629.5 76.66666666666666 629.5 85.33333333333333 Q 629.5 94 629.5 102.66666666666666 Q 629.5 111.33333333333333 629.5 120 Q 629.5 128.66666666666669 629.5 132.33333333333334 L 629.5 136" fill="none" stroke="#444444" stroke-width="2" marker-end="url(#arrowhead)"/><path d="M 571.4846993410214 28.410111202635917 L 704.9923496705107 43.87172226798462 Q 838.5 59.33333333333333 838.5 68 Q 838.5 76.66666666666666 838.5 85.33333333333333 Q 838.5 94 838.5 102.66666666666666 Q 838.5 111.33333333333333 838.5 120 Q 838.5 128.66666666666669 838.5 132.33333333333334 L 838.5 136" fill="none" stroke="#444444" stroke-width="2" marker-end="url(#arrowhead)"/><g transform="translate(433, 0)" data-node-id="glypho"><polygon points="29.8,0 119.2,0 149,21 119.2,42 29.8,42 0,21" fill="#fce2cc" stroke="#ef6c00" stroke-width="2"/><text x="74.5" y="21" text-anchor="middle" dominant-baseline="central" fill="#111111" font-size="14" font-family="system-ui, sans-serif">Glypho (.g)</text></g><g transform="translate(40, 146)" data-node-id="shapes"><rect x="0" y="0" width="182" height="78" rx="4" ry="4" fill="#ffffff" stroke="#222222" stroke-width="2"/><text x="91" y="21" text-anchor="middle" dominant-baseline="central" fill="#111111" font-size="14" font-family="system-ui, sans-serif">6 Shapes</text><text x="91" y="39" text-anchor="middle" dominant-baseline="central" fill="#111111" font-size="14" font-family="system-ui, sans-serif">rect, diamond, circle</text><text x="91" y="57" text-anchor="middle" dominant-baseline="central" fill="#111111" font-size="14" font-family="system-ui, sans-serif">oval, pill, hexagon</text></g><g transform="translate(282, 146)" data-node-id="edges"><rect x="0" y="0" width="207" height="78" rx="4" ry="4" fill="#ffffff" stroke="#222222" stroke-width="2"/><text x="103.5" y="21" text-anchor="middle" dominant-baseline="central" fill="#111111" font-size="14" font-family="system-ui, sans-serif">5 Edge Types</text><text x="103.5" y="39" text-anchor="middle" dominant-baseline="central" fill="#111111" font-size="14" font-family="system-ui, sans-serif">flow, dashed, thick</text><text x="103.5" y="57" text-anchor="middle" dominant-baseline="central" fill="#111111" font-size="14" font-family="system-ui, sans-serif">undirected, bidirectional</text></g><g transform="translate(549, 146)" data-node-id="groups"><rect x="0" y="0" width="161" height="78" rx="4" ry="4" fill="#ffffff" stroke="#222222" stroke-width="2"/><text x="80.5" y="21" text-anchor="middle" dominant-baseline="central" fill="#111111" font-size="14" font-family="system-ui, sans-serif">Groups</text><text x="80.5" y="39" text-anchor="middle" dominant-baseline="central" fill="#111111" font-size="14" font-family="system-ui, sans-serif">nested containers</text><text x="80.5" y="57" text-anchor="middle" dominant-baseline="central" fill="#111111" font-size="14" font-family="system-ui, sans-serif">with labels</text></g><g transform="translate(770, 146)" data-node-id="convert"><rect x="0" y="0" width="137" height="78" rx="4" ry="4" fill="#ffffff" stroke="#222222" stroke-width="2"/><text x="68.5" y="21" text-anchor="middle" dominant-baseline="central" fill="#111111" font-size="14" font-family="system-ui, sans-serif">Converters</text><text x="68.5" y="39" text-anchor="middle" dominant-baseline="central" fill="#111111" font-size="14" font-family="system-ui, sans-serif">Mermaid, DOT</text><text x="68.5" y="57" text-anchor="middle" dominant-baseline="central" fill="#111111" font-size="14" font-family="system-ui, sans-serif">JSON Canvas</text></g></svg>