<?xml version="1.0" encoding="UTF-8"?>
<svg viewBox="-40 -40 1100 344" style="max-width:100%" xmlns="http://www.w3.org/2000/svg"><defs><marker id="arrowhead" markerWidth="10" markerHeight="7" refX="0" refY="3.5" orient="auto" markerUnits="userSpaceOnUse"><polygon points="0 0, 10 3.5, 0 7" fill="#444444"/></marker><marker id="arrowhead-thick" markerWidth="14" markerHeight="10" refX="0" refY="5" orient="auto" markerUnits="userSpaceOnUse"><polygon points="0 0, 14 5, 0 10" fill="#444444"/></marker><marker id="arrowhead-reverse" markerWidth="10" markerHeight="7" refX="10" refY="3.5" orient="auto" markerUnits="userSpaceOnUse"><polygon points="10 0, 0 3.5, 10 7" fill="#444444"/></marker></defs><g><rect x="0" y="98" width="1020" height="166" fill="#f5f5f5" fill-opacity="1" stroke="#888888" stroke-width="1.5" stroke-dasharray="6 3" rx="8" ry="8"/><text x="10" y="114" fill="#555555" font-size="13" font-family="system-ui, sans-serif" font-weight="bold">features</text></g><path d="M 489.128782104391 27.682767191383597 L 316.5643910521955 43.508050262358466 Q 144 59.33333333333333 144 68 Q 144 76.66666666666666 144 85.33333333333333 Q 144 94 144 102.66666666666666 Q 144 111.33333333333333 144 120 Q 144 128.66666666666669 144 132.33333333333334 L 144 136" fill="none" stroke="#444444" stroke-width="2" marker-end="url(#arrowhead)"/><path d="M 504.6111699096312 37.41720263779207 L 466.3055849548156 48.3752679855627 Q 428 59.33333333333333 428 68 Q 428 76.66666666666666 428 85.33333333333333 Q 428 94 428 102.66666666666666 Q 428 111.33333333333333 428 120 Q 428 128.66666666666669 428 132.33333333333334 L 428 136" fill="none" stroke="#444444" stroke-width="2" marker-end="url(#arrowhead)"/><path d="M 619.3888300903689 37.41720263779207 L 657.6944150451844 48.3752679855627 Q 696 59.33333333333333 696 68 Q 696 76.66666666666666 696 85.33333333333333 Q 696 94 696 102.66666666666666 Q 696 111.33333333333333 696 120 Q 696 128.66666666666669 696 132.33333333333334 L 696 136" fill="none" stroke="#444444" stroke-width="2" marker-end="url(#arrowhead)"/><path d="M 633.1125487621181 28.78851724537484 L 772.556274381059 44.06092528935409 Q 912 59.33333333333333 912 68 Q 912 76.66666666666666 912 85.33333333333333 Q 912 94 912 102.66666666666666 Q 912 111.33333333333333 912 120 Q 912 128.66666666666669 912 132.33333333333334 L 912 136" fill="none" stroke="#444444" stroke-width="2" marker-end="url(#arrowhead)"/><g transform="translate(478.5, 0)" data-node-id="glypho"><polygon points="33.4,0 133.6,0 167,21 133.6,42 33.4,42 0,21" fill="#fce2cc" stroke="#ef6c00" stroke-width="2"/><text x="83.5" y="21" text-anchor="middle" dominant-baseline="central" fill="#111111" font-size="14" font-family="system-ui, sans-serif">Glypho (.g)</text></g><g transform="translate(40, 146)" data-node-id="shapes"><rect x="0" y="0" width="208" height="78" rx="4" ry="4" fill="#ffffff" stroke="#222222" stroke-width="2"/><text x="104" y="19" text-anchor="middle" dominant-baseline="central" fill="#111111" font-size="14" font-family="system-ui, sans-serif">6 Shapes</text><text x="104" y="39" text-anchor="middle" dominant-baseline="central" fill="#111111" font-size="14" font-family="system-ui, sans-serif">rect, diamond, circle</text><text x="104" y="59" text-anchor="middle" dominant-baseline="central" fill="#111111" font-size="14" font-family="system-ui, sans-serif">oval, pill, hexagon</text></g><g transform="translate(308, 146)" data-node-id="edges"><rect x="0" y="0" width="240" height="78" rx="4" ry="4" fill="#ffffff" stroke="#222222" stroke-width="2"/><text x="120" y="19" text-anchor="middle" dominant-baseline="central" fill="#111111" font-size="14" font-family="system-ui, sans-serif">5 Edge Types</text><text x="120" y="39" text-anchor="middle" dominant-baseline="central" fill="#111111" font-size="14" font-family="system-ui, sans-serif">flow, dashed, thick</text><text x="120" y="59" text-anchor="middle" dominant-baseline="central" fill="#111111" font-size="14" font-family="system-ui, sans-serif">undirected, bidirectional</text></g><g transform="translate(608, 146)" data-node-id="groups"><rect x="0" y="0" width="176" height="78" rx="4" ry="4" fill="#ffffff" stroke="#222222" stroke-width="2"/><text x="88" y="19" text-anchor="middle" dominant-baseline="central" fill="#111111" font-size="14" font-family="system-ui, sans-serif">Groups</text><text x="88" y="39" text-anchor="middle" dominant-baseline="central" fill="#111111" font-size="14" font-family="system-ui, sans-serif">nested containers</text><text x="88" y="59" text-anchor="middle" dominant-baseline="central" fill="#111111" font-size="14" font-family="system-ui, sans-serif">with labels</text></g><g transform="translate(844, 146)" data-node-id="convert"><rect x="0" y="0" width="136" height="78" rx="4" ry="4" fill="#ffffff" stroke="#222222" stroke-width="2"/><text x="68" y="19" text-anchor="middle" dominant-baseline="central" fill="#111111" font-size="14" font-family="system-ui, sans-serif">Converters</text><text x="68" y="39" text-anchor="middle" dominant-baseline="central" fill="#111111" font-size="14" font-family="system-ui, sans-serif">Mermaid, DOT</text><text x="68" y="59" text-anchor="middle" dominant-baseline="central" fill="#111111" font-size="14" font-family="system-ui, sans-serif">JSON Canvas</text></g></svg>