<?xml version="1.0" encoding="UTF-8"?>
<svg viewBox="-40 -40 396 383" style="max-width:100%" xmlns="http://www.w3.org/2000/svg"><rect x="-40" y="-40" width="396" height="383" fill="white"/><defs><marker id="arrowhead" markerWidth="10" markerHeight="7" refX="9" refY="3.5" orient="auto" markerUnits="userSpaceOnUse"><polygon points="0 0, 10 3.5, 0 7" fill="#444444"/></marker><marker id="arrowhead-thick" markerWidth="14" markerHeight="10" refX="13" refY="5" orient="auto" markerUnits="userSpaceOnUse"><polygon points="0 0, 14 5, 0 10" fill="#444444"/></marker><marker id="arrowhead-reverse" markerWidth="10" markerHeight="7" refX="1" refY="3.5" orient="auto" markerUnits="userSpaceOnUse"><polygon points="10 0, 0 3.5, 10 7" fill="#444444"/></marker></defs><path d="M 144.92346853334226 48.04062698864588 L 110.46173426667113 73.52031349432295 Q 76 99 76 119 L 76 139" fill="none" stroke="#444444" stroke-width="2" marker-end="url(#arrowhead)"/><path d="M 195.07653146665774 48.04062698864588 L 229.53826573332887 73.52031349432295 Q 264 99 264 119 L 264 139" fill="none" stroke="#444444" stroke-width="2" marker-end="url(#arrowhead)"/><path d="M 76 181 L 76 201 Q 76 221 101.51229692116351 244.40225732618006 L 127.02459384232704 267.8045146523601" fill="none" stroke="#444444" stroke-width="2" marker-end="url(#arrowhead)"/><path d="M 264 181 L 264 201 Q 264 221 238.4877030788365 244.40225732618006 L 212.97540615767295 267.8045146523601" fill="none" stroke="#444444" stroke-width="2" marker-end="url(#arrowhead)"/><g transform="translate(102.5, 0)" data-node-id="hungry"><polygon points="67.5,0 135,29.5 67.5,59 0,29.5" fill="#fff8e1" stroke="#f9a825" stroke-width="2"/><text x="67.5" y="29.5" text-anchor="middle" dominant-baseline="central" fill="#111111" font-size="14" font-family="system-ui, sans-serif">Hungry?</text></g><g transform="translate(0, 139)" data-node-id="cook"><rect x="0" y="0" width="152" height="42" rx="4" ry="4" fill="#ffffff" stroke="#222222" stroke-width="2"/><text x="76" y="21" text-anchor="middle" dominant-baseline="central" fill="#111111" font-size="14" font-family="system-ui, sans-serif">Cook Something</text></g><g transform="translate(212, 139)" data-node-id="order"><rect x="0" y="0" width="104" height="42" rx="4" ry="4" fill="#ffffff" stroke="#222222" stroke-width="2"/><text x="52" y="21" text-anchor="middle" dominant-baseline="central" fill="#111111" font-size="14" font-family="system-ui, sans-serif">Order In</text></g><g transform="translate(121.5, 261)" data-node-id="enjoy"><rect x="0" y="0" width="97" height="42" rx="21" ry="21" fill="#f3e5f5" stroke="#8e24aa" stroke-width="2"/><text x="48.5" y="21" text-anchor="middle" dominant-baseline="central" fill="#111111" font-size="14" font-family="system-ui, sans-serif">Enjoy!</text></g><g transform="translate(76, 85)"><rect x="-18.5" y="-10" width="37" height="20" fill="white" stroke="#bbb" stroke-width="0.5" rx="3"/><text text-anchor="middle" dominant-baseline="central" fill="#333333" font-size="13" font-family="system-ui, sans-serif">yes</text></g><g transform="translate(264, 85)"><rect x="-15" y="-10" width="30" height="20" fill="white" stroke="#bbb" stroke-width="0.5" rx="3"/><text text-anchor="middle" dominant-baseline="central" fill="#333333" font-size="13" font-family="system-ui, sans-serif">no</text></g></svg>