<?xml version="1.0" encoding="UTF-8"?>
<svg viewBox="-40 -43.75 1456 254.75" style="max-width:100%" xmlns="http://www.w3.org/2000/svg"><defs><marker id="arrowhead" markerWidth="10" markerHeight="7" refX="0" refY="3.5" orient="auto" markerUnits="userSpaceOnUse"><polygon points="0 0, 10 3.5, 0 7" fill="#444444"/></marker><marker id="arrowhead-thick" markerWidth="14" markerHeight="10" refX="0" refY="5" orient="auto" markerUnits="userSpaceOnUse"><polygon points="0 0, 14 5, 0 10" fill="#444444"/></marker><marker id="arrowhead-reverse" markerWidth="10" markerHeight="7" refX="10" refY="3.5" orient="auto" markerUnits="userSpaceOnUse"><polygon points="10 0, 0 3.5, 10 7" fill="#444444"/></marker></defs><g><rect x="272" y="-3.75" width="824" height="174.75" fill="#f5f5f5" fill-opacity="1" stroke="#888888" stroke-width="1.5" stroke-dasharray="6 3" rx="8" ry="8"/><text x="282" y="12.25" fill="#555555" font-size="13" font-family="system-ui, sans-serif" font-weight="bold">work</text></g><path d="M 72 95.75 L 92 95.75 Q 112 95.75 132 95.75 Q 152 95.75 172 95.75 Q 192 95.75 212 95.75 Q 232 95.75 252 95.75 Q 272 95.75 287 95.75 L 302 95.75" fill="none" stroke="#444444" stroke-width="2" marker-end="url(#arrowhead)"/><path d="M 384 81.30263157894737 L 404 73.27631578947368 Q 424 65.25 444 65.25 Q 464 65.25 484 65.25 Q 504 65.25 524 65.25 Q 544 65.25 564 65.25 Q 584 65.25 599 65.25 L 614 65.25" fill="none" stroke="#444444" stroke-width="2" marker-end="url(#arrowhead)"/><path d="M 704 65.25 L 724 65.25 Q 744 65.25 764 65.25 Q 784 65.25 804 65.25 Q 824 65.25 844 65.25 Q 864 65.25 884 65.25 Q 904 65.25 929.7686403346804 73.43691177299745 L 955.5372806693609 81.6238235459949" fill="none" stroke="#444444" stroke-width="2" marker-end="url(#arrowhead)"/><path d="M 1056 95.75 L 1076 95.75 Q 1096 95.75 1116 95.75 Q 1136 95.75 1156 95.75 Q 1176 95.75 1196 95.75 Q 1216 95.75 1236 95.75 Q 1256 95.75 1271 95.75 L 1286 95.75" fill="none" stroke="#444444" stroke-width="2" marker-end="url(#arrowhead)"/><path d="M 965.0678414096916 106.84823788546255 L 934.5339207048457 116.54911894273127 Q 904 126.25 884 126.25 Q 864 126.25 844 126.25 Q 824 126.25 804 126.25 Q 784 126.25 764 126.25 Q 744 126.25 704 126.25 Q 664 126.25 624 126.25 Q 584 126.25 564 126.25 Q 544 126.25 524 126.25 Q 504 126.25 484 126.25 Q 464 126.25 444 126.25 Q 424 126.25 408.64027508263223 120.08589986868793 L 393.28055016526446 113.92179973737588" fill="none" stroke="#444444" stroke-width="2" marker-end="url(#arrowhead)"/><g transform="translate(0, 59.75)" data-node-id="idea"><circle cx="36" cy="36" r="36" fill="#ffebcc" stroke="#ff9900" stroke-width="2"/><text x="36" y="36" text-anchor="middle" dominant-baseline="central" fill="#111111" font-size="14" font-family="system-ui, sans-serif">Idea</text></g><g transform="translate(312, 74.75)" data-node-id="plan"><rect x="0" y="0" width="72" height="42" rx="4" ry="4" fill="#ffffff" stroke="#222222" stroke-width="2"/><text x="36" y="21" text-anchor="middle" dominant-baseline="central" fill="#111111" font-size="14" font-family="system-ui, sans-serif">Plan</text></g><g transform="translate(624, 44.25)" data-node-id="build"><rect x="0" y="0" width="80" height="42" rx="4" ry="4" fill="#ffffff" stroke="#222222" stroke-width="2"/><text x="40" y="21" text-anchor="middle" dominant-baseline="central" fill="#111111" font-size="14" font-family="system-ui, sans-serif">Build</text></g><g transform="translate(944, 66.25)" data-node-id="test"><polygon points="56,0 112,29.5 56,59 0,29.5" fill="#fff8e1" stroke="#f9a825" stroke-width="2"/><text x="56" y="29.5" text-anchor="middle" dominant-baseline="central" fill="#111111" font-size="14" font-family="system-ui, sans-serif">Ready</text></g><g transform="translate(1296, 74.75)" data-node-id="ship"><rect x="0" y="0" width="80" height="42" rx="21" ry="21" fill="#cceeff" stroke="#00aaff" stroke-width="2"/><text x="40" y="21" text-anchor="middle" dominant-baseline="central" fill="#111111" font-size="14" font-family="system-ui, sans-serif">Ship</text></g><g transform="translate(1176, 81.75)"><rect x="-18.5" y="-10" width="37" height="20" fill="white" stroke="#bbb" stroke-width="0.5" rx="3"/><text text-anchor="middle" dominant-baseline="central" fill="#333333" font-size="13" font-family="system-ui, sans-serif">yes</text></g><g transform="translate(664, 112.25)"><rect x="-15" y="-10" width="30" height="20" fill="white" stroke="#bbb" stroke-width="0.5" rx="3"/><text text-anchor="middle" dominant-baseline="central" fill="#333333" font-size="13" font-family="system-ui, sans-serif">no</text></g></svg>