<?xml version="1.0" encoding="UTF-8"?>
<svg viewBox="-40 -88 816 233" style="max-width:100%" xmlns="http://www.w3.org/2000/svg"><defs><marker id="arrowhead" markerWidth="10" markerHeight="7" refX="9" refY="3.5" orient="auto" markerUnits="userSpaceOnUse"><polygon points="0 0, 10 3.5, 0 7" fill="#444444"/></marker><marker id="arrowhead-thick" markerWidth="14" markerHeight="10" refX="13" refY="5" orient="auto" markerUnits="userSpaceOnUse"><polygon points="0 0, 14 5, 0 10" fill="#444444"/></marker><marker id="arrowhead-reverse" markerWidth="10" markerHeight="7" refX="1" refY="3.5" orient="auto" markerUnits="userSpaceOnUse"><polygon points="10 0, 0 3.5, 10 7" fill="#444444"/></marker></defs><g><rect x="128" y="-48" width="472" height="153" fill="#f5f5f5" fill-opacity="1" stroke="#888888" stroke-width="1.5" stroke-dasharray="6 3" rx="8" ry="8"/><text x="138" y="-32" fill="#555555" font-size="13" font-family="system-ui, sans-serif" font-weight="bold">work</text></g><path d="M 72 51.5 L 92 51.5 Q 112 51.5 132 51.5 L 152 51.5" fill="none" stroke="#444444" stroke-width="2" marker-end="url(#arrowhead)"/><path d="M 224 37.05263157894737 L 244 29.026315789473685 Q 264 21 284 21 L 304 21" fill="none" stroke="#444444" stroke-width="2" marker-end="url(#arrowhead)"/><path d="M 384 21 L 404 21 Q 424 21 454.53392070484585 30.700881057268724 L 485.06784140969165 40.40176211453745" fill="none" stroke="#444444" stroke-width="2" marker-end="url(#arrowhead)"/><path d="M 576 51.5 L 596 51.5 Q 616 51.5 636 51.5 L 656 51.5" fill="none" stroke="#444444" stroke-width="2" marker-end="url(#arrowhead)"/><path d="M 485.06784140969165 62.59823788546255 L 454.53392070484585 72.29911894273127 Q 424 82 384 82 Q 344 82 304 82 Q 264 82 244 73.97368421052632 L 224 65.94736842105263" fill="none" stroke="#444444" stroke-width="2" marker-end="url(#arrowhead)"/><g transform="translate(0, 15.5)" data-node-id="idea"><circle cx="36" cy="36" r="36" fill="#ffebcc" stroke="#ff9900" stroke-width="2"/><text x="36" y="36" text-anchor="middle" dominant-baseline="central" fill="#111111" font-size="14" font-family="system-ui, sans-serif">Idea</text></g><g transform="translate(152, 30.5)" data-node-id="plan"><rect x="0" y="0" width="72" height="42" rx="4" ry="4" fill="#ffffff" stroke="#222222" stroke-width="2"/><text x="36" y="21" text-anchor="middle" dominant-baseline="central" fill="#111111" font-size="14" font-family="system-ui, sans-serif">Plan</text></g><g transform="translate(304, 0)" data-node-id="build"><rect x="0" y="0" width="80" height="42" rx="4" ry="4" fill="#ffffff" stroke="#222222" stroke-width="2"/><text x="40" y="21" text-anchor="middle" dominant-baseline="central" fill="#111111" font-size="14" font-family="system-ui, sans-serif">Build</text></g><g transform="translate(464, 22)" data-node-id="test"><polygon points="56,0 112,29.5 56,59 0,29.5" fill="#fff8e1" stroke="#f9a825" stroke-width="2"/><text x="56" y="29.5" text-anchor="middle" dominant-baseline="central" fill="#111111" font-size="14" font-family="system-ui, sans-serif">Ready</text></g><g transform="translate(656, 30.5)" data-node-id="ship"><rect x="0" y="0" width="80" height="42" rx="21" ry="21" fill="#cceeff" stroke="#00aaff" stroke-width="2"/><text x="40" y="21" text-anchor="middle" dominant-baseline="central" fill="#111111" font-size="14" font-family="system-ui, sans-serif">Ship</text></g><g transform="translate(616, 37.5)"><rect x="-18.5" y="-10" width="37" height="20" fill="white" stroke="#bbb" stroke-width="0.5" rx="3"/><text text-anchor="middle" dominant-baseline="central" fill="#333333" font-size="13" font-family="system-ui, sans-serif">yes</text></g><g transform="translate(344, 68)"><rect x="-15" y="-10" width="30" height="20" fill="white" stroke="#bbb" stroke-width="0.5" rx="3"/><text text-anchor="middle" dominant-baseline="central" fill="#333333" font-size="13" font-family="system-ui, sans-serif">no</text></g></svg>