<?xml version="1.0" encoding="UTF-8"?>
<svg viewBox="-40 -43.75 921 233" style="max-width:100%" xmlns="http://www.w3.org/2000/svg"><rect x="-40" y="-43.75" width="921" height="233" fill="white"/><defs><marker id="arrowhead" markerWidth="10" markerHeight="7" refX="0" refY="3.5" orient="auto" markerUnits="userSpaceOnUse"><polygon points="0 0, 10 3.5, 0 7" fill="#444444"/></marker><marker id="arrowhead-thick" markerWidth="14" markerHeight="10" refX="0" refY="5" orient="auto" markerUnits="userSpaceOnUse"><polygon points="0 0, 14 5, 0 10" fill="#444444"/></marker><marker id="arrowhead-reverse" markerWidth="10" markerHeight="7" refX="10" refY="3.5" orient="auto" markerUnits="userSpaceOnUse"><polygon points="10 0, 0 3.5, 10 7" fill="#444444"/></marker></defs><g><rect x="154" y="-3.75" width="529" height="153" fill="#f5f5f5" fill-opacity="1" stroke="#888888" stroke-width="1.5" stroke-dasharray="6 3" rx="8" ry="8"/><text x="164" y="12.25" fill="#555555" font-size="13" font-family="system-ui, sans-serif" font-weight="bold">work</text></g><path d="M 74 95.75 L 82.66666666666666 95.75 Q 91.33333333333333 95.75 100 95.75 Q 108.66666666666666 95.75 117.33333333333333 95.75 Q 126 95.75 134.66666666666666 95.75 Q 143.33333333333331 95.75 152 95.75 Q 160.66666666666669 95.75 164.33333333333334 95.75 L 168 95.75" fill="none" stroke="#444444" stroke-width="2" marker-end="url(#arrowhead)"/><path d="M 249 75.25630914826498 L 257.66666666666663 70.25315457413248 Q 266.3333333333333 65.25 275 65.25 Q 283.6666666666667 65.25 292.33333333333337 65.25 Q 301 65.25 309.66666666666663 65.25 Q 318.3333333333333 65.25 327 65.25 Q 335.6666666666667 65.25 339.33333333333337 65.25 L 343 65.25" fill="none" stroke="#444444" stroke-width="2" marker-end="url(#arrowhead)"/><path d="M 429 65.25 L 437.66666666666663 65.25 Q 446.3333333333333 65.25 455 65.25 Q 463.6666666666667 65.25 472.33333333333337 65.25 Q 481 65.25 489.66666666666663 65.25 Q 498.3333333333333 65.25 507 65.25 Q 515.6666666666666 65.25 533.7634327802346 72.1207638978899 L 551.8601988938025 78.99152779577979" fill="none" stroke="#444444" stroke-width="2" marker-end="url(#arrowhead)"/><path d="M 659 95.75 L 667.6666666666667 95.75 Q 676.3333333333334 95.75 685 95.75 Q 693.6666666666666 95.75 702.3333333333333 95.75 Q 711 95.75 719.6666666666667 95.75 Q 728.3333333333334 95.75 737 95.75 Q 745.6666666666666 95.75 749.3333333333333 95.75 L 753 95.75" fill="none" stroke="#444444" stroke-width="2" marker-end="url(#arrowhead)"/><path d="M 561.2090647817306 108.95900652477862 L 538.4378657241987 117.6045032623893 Q 515.6666666666666 126.25 507 126.25 Q 498.3333333333333 126.25 489.66666666666663 126.25 Q 481 126.25 472.33333333333337 126.25 Q 463.6666666666667 126.25 455 126.25 Q 446.3333333333333 126.25 418.66666666666663 126.25 Q 391 126.25 363.33333333333337 126.25 Q 335.6666666666667 126.25 327 126.25 Q 318.3333333333333 126.25 309.66666666666663 126.25 Q 301 126.25 292.33333333333337 126.25 Q 283.6666666666667 126.25 275 126.25 Q 266.3333333333333 126.25 261.9969121894861 123.74664015986107 L 257.66049104563893 121.24328031972216" fill="none" stroke="#444444" stroke-width="2" marker-end="url(#arrowhead)"/><g transform="translate(0, 58.75)" data-node-id="idea"><circle cx="37" cy="37" r="37" fill="#ffebcc" stroke="#ff9900" stroke-width="2"/><text x="37" y="37" text-anchor="middle" dominant-baseline="central" fill="#111111" font-size="14" font-family="system-ui, sans-serif">Idea</text></g><g transform="translate(178, 74.75)" data-node-id="plan"><rect x="0" y="0" width="71" height="42" rx="4" ry="4" fill="#ffffff" stroke="#222222" stroke-width="2"/><text x="35.5" y="21" text-anchor="middle" dominant-baseline="central" fill="#111111" font-size="14" font-family="system-ui, sans-serif">Plan</text></g><g transform="translate(353, 44.25)" data-node-id="build"><rect x="0" y="0" width="76" height="42" rx="4" ry="4" fill="#ffffff" stroke="#222222" stroke-width="2"/><text x="38" y="21" text-anchor="middle" dominant-baseline="central" fill="#111111" font-size="14" font-family="system-ui, sans-serif">Build</text></g><g transform="translate(533, 66.25)" data-node-id="test"><polygon points="63,0 126,29.5 63,59 0,29.5" fill="#fff8e1" stroke="#f9a825" stroke-width="2"/><text x="63" y="29.5" text-anchor="middle" dominant-baseline="central" fill="#111111" font-size="14" font-family="system-ui, sans-serif">Ready?</text></g><g transform="translate(763, 74.75)" data-node-id="ship"><rect x="0" y="0" width="78" height="42" rx="21" ry="21" fill="#cceeff" stroke="#00aaff" stroke-width="2"/><text x="39" y="21" text-anchor="middle" dominant-baseline="central" fill="#111111" font-size="14" font-family="system-ui, sans-serif">Ship</text></g><g transform="translate(711, 81.75)"><rect x="-18.5" y="-10" width="37" height="20" fill="white" stroke="#bbb" stroke-width="0.5" rx="3"/><text text-anchor="middle" dominant-baseline="central" fill="#333333" font-size="13" font-family="system-ui, sans-serif">yes</text></g><g transform="translate(391, 112.25)"><rect x="-15" y="-10" width="30" height="20" fill="white" stroke="#bbb" stroke-width="0.5" rx="3"/><text text-anchor="middle" dominant-baseline="central" fill="#333333" font-size="13" font-family="system-ui, sans-serif">no</text></g></svg>