<?xml version="1.0" encoding="UTF-8"?>
<svg viewBox="-40 -43.75 912 233" style="max-width:100%" xmlns="http://www.w3.org/2000/svg"><defs><marker id="arrowhead" markerWidth="10" markerHeight="7" refX="0" refY="3.5" orient="auto" markerUnits="userSpaceOnUse"><polygon points="0 0, 10 3.5, 0 7" fill="#444444"/></marker><marker id="arrowhead-thick" markerWidth="14" markerHeight="10" refX="0" refY="5" orient="auto" markerUnits="userSpaceOnUse"><polygon points="0 0, 14 5, 0 10" fill="#444444"/></marker><marker id="arrowhead-reverse" markerWidth="10" markerHeight="7" refX="10" refY="3.5" orient="auto" markerUnits="userSpaceOnUse"><polygon points="10 0, 0 3.5, 10 7" fill="#444444"/></marker></defs><g><rect x="152" y="-3.75" width="520" height="153" fill="#f5f5f5" fill-opacity="1" stroke="#888888" stroke-width="1.5" stroke-dasharray="6 3" rx="8" ry="8"/><text x="162" y="12.25" fill="#555555" font-size="13" font-family="system-ui, sans-serif" font-weight="bold">work</text></g><path d="M 72 95.75 L 80.66666666666666 95.75 Q 89.33333333333333 95.75 98 95.75 Q 106.66666666666666 95.75 115.33333333333333 95.75 Q 124 95.75 132.66666666666666 95.75 Q 141.33333333333331 95.75 150 95.75 Q 158.66666666666669 95.75 162.33333333333334 95.75 L 166 95.75" fill="none" stroke="#444444" stroke-width="2" marker-end="url(#arrowhead)"/><path d="M 248 75.1625 L 256.66666666666663 70.20625 Q 265.3333333333333 65.25 274 65.25 Q 282.6666666666667 65.25 291.33333333333337 65.25 Q 300 65.25 308.66666666666663 65.25 Q 317.3333333333333 65.25 326 65.25 Q 334.6666666666667 65.25 338.33333333333337 65.25 L 342 65.25" fill="none" stroke="#444444" stroke-width="2" marker-end="url(#arrowhead)"/><path d="M 432 65.25 L 440.66666666666663 65.25 Q 449.3333333333333 65.25 458 65.25 Q 466.6666666666667 65.25 475.33333333333337 65.25 Q 484 65.25 492.66666666666663 65.25 Q 501.3333333333333 65.25 510 65.25 Q 518.6666666666666 65.25 535.0700746106246 72.07232648578251 L 551.4734825545826 78.89465297156502" fill="none" stroke="#444444" stroke-width="2" marker-end="url(#arrowhead)"/><path d="M 648 95.75 L 656.6666666666667 95.75 Q 665.3333333333334 95.75 674 95.75 Q 682.6666666666666 95.75 691.3333333333333 95.75 Q 700 95.75 708.6666666666667 95.75 Q 717.3333333333334 95.75 726 95.75 Q 734.6666666666666 95.75 738.3333333333333 95.75 L 742 95.75" fill="none" stroke="#444444" stroke-width="2" marker-end="url(#arrowhead)"/><path d="M 560.7067332529706 108.7651541243327 L 539.6866999598186 117.50757706216635 Q 518.6666666666666 126.25 510 126.25 Q 501.3333333333333 126.25 492.66666666666663 126.25 Q 484 126.25 475.33333333333337 126.25 Q 466.6666666666667 126.25 458 126.25 Q 449.3333333333333 126.25 420.66666666666663 126.25 Q 392 126.25 363.33333333333337 126.25 Q 334.6666666666667 126.25 326 126.25 Q 317.3333333333333 126.25 308.66666666666663 126.25 Q 300 126.25 291.33333333333337 126.25 Q 282.6666666666667 126.25 274 126.25 Q 265.3333333333333 126.25 261.00704744293364 123.7759052564277 L 256.680761552534 121.30181051285541" fill="none" stroke="#444444" stroke-width="2" marker-end="url(#arrowhead)"/><g transform="translate(0, 59.75)" data-node-id="idea"><circle cx="36" cy="36" r="36" fill="#ffebcc" stroke="#ff9900" stroke-width="2"/><text x="36" y="36" text-anchor="middle" dominant-baseline="central" fill="#111111" font-size="14" font-family="system-ui, sans-serif">Idea</text></g><g transform="translate(176, 74.75)" data-node-id="plan"><rect x="0" y="0" width="72" height="42" rx="4" ry="4" fill="#ffffff" stroke="#222222" stroke-width="2"/><text x="36" y="21" text-anchor="middle" dominant-baseline="central" fill="#111111" font-size="14" font-family="system-ui, sans-serif">Plan</text></g><g transform="translate(352, 44.25)" data-node-id="build"><rect x="0" y="0" width="80" height="42" rx="4" ry="4" fill="#ffffff" stroke="#222222" stroke-width="2"/><text x="40" y="21" text-anchor="middle" dominant-baseline="central" fill="#111111" font-size="14" font-family="system-ui, sans-serif">Build</text></g><g transform="translate(536, 66.25)" data-node-id="test"><polygon points="56,0 112,29.5 56,59 0,29.5" fill="#fff8e1" stroke="#f9a825" stroke-width="2"/><text x="56" y="29.5" text-anchor="middle" dominant-baseline="central" fill="#111111" font-size="14" font-family="system-ui, sans-serif">Ready</text></g><g transform="translate(752, 74.75)" data-node-id="ship"><rect x="0" y="0" width="80" height="42" rx="21" ry="21" fill="#cceeff" stroke="#00aaff" stroke-width="2"/><text x="40" y="21" text-anchor="middle" dominant-baseline="central" fill="#111111" font-size="14" font-family="system-ui, sans-serif">Ship</text></g><g transform="translate(700, 81.75)"><rect x="-18.5" y="-10" width="37" height="20" fill="white" stroke="#bbb" stroke-width="0.5" rx="3"/><text text-anchor="middle" dominant-baseline="central" fill="#333333" font-size="13" font-family="system-ui, sans-serif">yes</text></g><g transform="translate(392, 112.25)"><rect x="-15" y="-10" width="30" height="20" fill="white" stroke="#bbb" stroke-width="0.5" rx="3"/><text text-anchor="middle" dominant-baseline="central" fill="#333333" font-size="13" font-family="system-ui, sans-serif">no</text></g></svg>