<?xml version="1.0" encoding="UTF-8"?>
<svg viewBox="-40 -43 1093 227" style="max-width:100%" xmlns="http://www.w3.org/2000/svg"><rect x="-40" y="-43" width="1093" height="227" fill="white"/><defs><marker id="arrowhead" markerWidth="10" markerHeight="7" refX="0" refY="3.5" orient="auto" markerUnits="userSpaceOnUse"><polygon points="0 0, 10 3.5, 0 7" fill="#444444"/></marker><marker id="arrowhead-thick" markerWidth="14" markerHeight="10" refX="0" refY="5" orient="auto" markerUnits="userSpaceOnUse"><polygon points="0 0, 14 5, 0 10" fill="#444444"/></marker><marker id="arrowhead-reverse" markerWidth="10" markerHeight="7" refX="10" refY="3.5" orient="auto" markerUnits="userSpaceOnUse"><polygon points="10 0, 0 3.5, 10 7" fill="#444444"/></marker></defs><path d="M 96 72 L 116 72 Q 136 72 151 72 L 166 72" fill="none" stroke="#444444" stroke-width="2" marker-end="url(#arrowhead)"/><path d="M 304 72 L 324 72 Q 344 72 359 72 L 374 72" fill="none" stroke="#444444" stroke-width="2" marker-end="url(#arrowhead)"/><path d="M 530.1221201868858 55.67923312389238 L 578.0610600934428 38.33961656194619 Q 626 21 641 21 L 656 21" fill="none" stroke="#444444" stroke-width="2" marker-end="url(#arrowhead)"/><path d="M 530.1221201868858 88.32076687610763 L 578.0610600934428 105.66038343805381 Q 626 123 643 123 L 660 123" fill="none" stroke="#444444" stroke-width="2" marker-end="url(#arrowhead)"/><path d="M 818 21 L 838 21 Q 858 21 876.6085644216568 36.5579800902376 L 895.2171288433135 52.1159601804752" fill="none" stroke="#444444" stroke-width="2" marker-end="url(#arrowhead)"/><path d="M 814 123 L 836 123 Q 858 123 876.6085644216568 107.4420199097624 L 895.2171288433135 91.8840398195248" fill="none" stroke="#444444" stroke-width="2" marker-end="url(#arrowhead)"/><g transform="translate(0, 24)" data-node-id="wake"><circle cx="48" cy="48" r="48" fill="#e8f5e9" stroke="#43a047" stroke-width="2"/><text x="48" y="48" text-anchor="middle" dominant-baseline="central" fill="#111111" font-size="14" font-family="system-ui, sans-serif">Wake Up</text></g><g transform="translate(176, 51)" data-node-id="coffee"><rect x="0" y="0" width="128" height="42" rx="4" ry="4" fill="#ffffff" stroke="#222222" stroke-width="2"/><text x="64" y="21" text-anchor="middle" dominant-baseline="central" fill="#111111" font-size="14" font-family="system-ui, sans-serif">Make Coffee</text></g><g transform="translate(384, 42.5)" data-node-id="ready"><polygon points="101,0 202,29.5 101,59 0,29.5" fill="#fff8e1" stroke="#f9a825" stroke-width="2"/><text x="101" y="29.5" text-anchor="middle" dominant-baseline="central" fill="#111111" font-size="14" font-family="system-ui, sans-serif">Running Late?</text></g><g transform="translate(666, 0)" data-node-id="rush"><rect x="0" y="0" width="152" height="42" rx="4" ry="4" fill="#ffffff" stroke="#222222" stroke-width="2"/><text x="76" y="21" text-anchor="middle" dominant-baseline="central" fill="#111111" font-size="14" font-family="system-ui, sans-serif">Skip Breakfast</text></g><g transform="translate(670, 102)" data-node-id="eat"><rect x="0" y="0" width="144" height="42" rx="4" ry="4" fill="#ffffff" stroke="#222222" stroke-width="2"/><text x="72" y="21" text-anchor="middle" dominant-baseline="central" fill="#111111" font-size="14" font-family="system-ui, sans-serif">Eat Breakfast</text></g><g transform="translate(898, 51)" data-node-id="go"><rect x="0" y="0" width="115" height="42" rx="21" ry="21" fill="#f3e5f5" stroke="#8e24aa" stroke-width="2"/><text x="57.5" y="21" text-anchor="middle" dominant-baseline="central" fill="#111111" font-size="14" font-family="system-ui, sans-serif">Head Out</text></g><g transform="translate(626, 7)"><rect x="-18.5" y="-10" width="37" height="20" fill="white" stroke="#bbb" stroke-width="0.5" rx="3"/><text text-anchor="middle" dominant-baseline="central" fill="#333333" font-size="13" font-family="system-ui, sans-serif">yes</text></g><g transform="translate(626, 109)"><rect x="-15" y="-10" width="30" height="20" fill="white" stroke="#bbb" stroke-width="0.5" rx="3"/><text text-anchor="middle" dominant-baseline="central" fill="#333333" font-size="13" font-family="system-ui, sans-serif">no</text></g></svg>