<?xml version="1.0" encoding="UTF-8"?>
<svg viewBox="-40 -40 1087 161" style="max-width:100%" xmlns="http://www.w3.org/2000/svg"><rect x="-40" y="-40" width="1087" height="161" fill="white"/><defs><marker id="arrowhead" markerWidth="10" markerHeight="7" refX="0" refY="3.5" orient="auto" markerUnits="userSpaceOnUse"><polygon points="0 0, 10 3.5, 0 7" fill="#444444"/></marker><marker id="arrowhead-thick" markerWidth="14" markerHeight="10" refX="0" refY="5" orient="auto" markerUnits="userSpaceOnUse"><polygon points="0 0, 14 5, 0 10" fill="#444444"/></marker><marker id="arrowhead-reverse" markerWidth="10" markerHeight="7" refX="10" refY="3.5" orient="auto" markerUnits="userSpaceOnUse"><polygon points="10 0, 0 3.5, 10 7" fill="#444444"/></marker></defs><path d="M 108 40.5 L 128 40.5 Q 148 40.5 163 40.5 L 178 40.5" fill="none" stroke="#444444" stroke-width="2" marker-end="url(#arrowhead)"/><path d="M 326 40.5 L 346 40.5 Q 366 40.5 381 40.5 L 396 40.5" fill="none" stroke="#444444" stroke-width="2" stroke-dasharray="6 4" marker-end="url(#arrowhead)"/><path d="M 487 40.5 L 507 40.5 Q 527 40.5 540 40.5 L 553 40.5" fill="none" stroke="#444444" stroke-width="4" marker-end="url(#arrowhead-thick)"/><path d="M 649 40.5 L 669 40.5 Q 689 40.5 709 40.5 L 729 40.5" fill="none" stroke="#444444" stroke-width="2"/><path d="M 810 40.5 L 825 40.5 Q 840 40.5 855 40.5 L 870 40.5" fill="none" stroke="#444444" stroke-width="2" marker-end="url(#arrowhead)" marker-start="url(#arrowhead-reverse)"/><g transform="translate(0, 19.5)" data-node-id="a"><rect x="0" y="0" width="108" height="42" rx="4" ry="4" fill="#cce7ff" stroke="#0088ff" stroke-width="2"/><text x="54" y="21" text-anchor="middle" dominant-baseline="central" fill="#111111" font-size="14" font-family="system-ui, sans-serif">Rectangle</text></g><g transform="translate(188, 11)" data-node-id="b"><polygon points="69,0 138,29.5 69,59 0,29.5" fill="#ffeecc" stroke="#ffaa00" stroke-width="2"/><text x="69" y="29.5" text-anchor="middle" dominant-baseline="central" fill="#111111" font-size="14" font-family="system-ui, sans-serif">Diamond</text></g><g transform="translate(406, 0)" data-node-id="c"><circle cx="40.5" cy="40.5" r="40.5" fill="#eeddff" stroke="#aa55ff" stroke-width="2"/><text x="40.5" y="40.5" text-anchor="middle" dominant-baseline="central" fill="#111111" font-size="14" font-family="system-ui, sans-serif">Circle</text></g><g transform="translate(567, 13)" data-node-id="d"><ellipse cx="41" cy="27.5" rx="41" ry="27.5" fill="#cceedd" stroke="#00aa55" stroke-width="2"/><text x="41" y="27.5" text-anchor="middle" dominant-baseline="central" fill="#111111" font-size="14" font-family="system-ui, sans-serif">Oval</text></g><g transform="translate(729, 19.5)" data-node-id="e"><rect x="0" y="0" width="71" height="42" rx="21" ry="21" fill="#ffdddd" stroke="#ff5555" stroke-width="2"/><text x="35.5" y="21" text-anchor="middle" dominant-baseline="central" fill="#111111" font-size="14" font-family="system-ui, sans-serif">Pill</text></g><g transform="translate(880, 19.5)" data-node-id="f"><polygon points="25.400000000000002,0 101.6,0 127,21 101.6,42 25.400000000000002,42 0,21" fill="#ffe7cc" stroke="#ff8800" stroke-width="2"/><text x="63.5" y="21" text-anchor="middle" dominant-baseline="central" fill="#111111" font-size="14" font-family="system-ui, sans-serif">Hexagon</text></g><g transform="translate(148, 26.5)"><rect x="-22" y="-10" width="44" height="20" fill="white" stroke="#bbb" stroke-width="0.5" rx="3"/><text text-anchor="middle" dominant-baseline="central" fill="#333333" font-size="13" font-family="system-ui, sans-serif">flow</text></g><g transform="translate(366, 26.5)"><rect x="-29" y="-10" width="58" height="20" fill="white" stroke="#bbb" stroke-width="0.5" rx="3"/><text text-anchor="middle" dominant-baseline="central" fill="#333333" font-size="13" font-family="system-ui, sans-serif">dashed</text></g><g transform="translate(527, 26.5)"><rect x="-25.5" y="-10" width="51" height="20" fill="white" stroke="#bbb" stroke-width="0.5" rx="3"/><text text-anchor="middle" dominant-baseline="central" fill="#333333" font-size="13" font-family="system-ui, sans-serif">thick</text></g><g transform="translate(689, 26.5)"><rect x="-43" y="-10" width="86" height="20" fill="white" stroke="#bbb" stroke-width="0.5" rx="3"/><text text-anchor="middle" dominant-baseline="central" fill="#333333" font-size="13" font-family="system-ui, sans-serif">undirected</text></g><g transform="translate(840, 26.5)"><rect x="-53.5" y="-10" width="107" height="20" fill="white" stroke="#bbb" stroke-width="0.5" rx="3"/><text text-anchor="middle" dominant-baseline="central" fill="#333333" font-size="13" font-family="system-ui, sans-serif">bidirectional</text></g></svg>