<?xml version="1.0" encoding="UTF-8"?>
<svg viewBox="-40 -40 663 160" style="max-width:100%" xmlns="http://www.w3.org/2000/svg"><rect x="-40" y="-40" width="663" height="160" fill="white"/><defs><marker id="arrowhead" markerWidth="10" markerHeight="7" refX="9" refY="3.5" orient="auto" markerUnits="userSpaceOnUse"><polygon points="0 0, 10 3.5, 0 7" fill="#444444"/></marker><marker id="arrowhead-thick" markerWidth="14" markerHeight="10" refX="13" refY="5" orient="auto" markerUnits="userSpaceOnUse"><polygon points="0 0, 14 5, 0 10" fill="#444444"/></marker><marker id="arrowhead-reverse" markerWidth="10" markerHeight="7" refX="1" refY="3.5" orient="auto" markerUnits="userSpaceOnUse"><polygon points="10 0, 0 3.5, 10 7" fill="#444444"/></marker></defs><path d="M 80 40 L 100 40 Q 120 40 140 40 L 160 40" fill="none" stroke="#444444" stroke-width="2" marker-end="url(#arrowhead)"/><path d="M 264 34.34782608695652 L 284 32.173913043478265 Q 304 30 326.84691177812243 32.87382538089591 L 349.69382355624487 35.74765076179181" fill="none" stroke="#444444" stroke-width="2" marker-end="url(#arrowhead)"/><path d="M 423 40 L 443 40 Q 463 40 483 40 L 503 40" fill="none" stroke="#444444" stroke-width="2" marker-end="url(#arrowhead)"/><path d="M 349.69382355624487 44.25234923820819 L 326.84691177812243 47.12617461910409 Q 304 50 284 47.826086956521735 L 264 45.65217391304348" fill="none" stroke="#444444" stroke-width="2" marker-end="url(#arrowhead)"/><g transform="translate(0, 0)" data-node-id="start"><circle cx="40" cy="40" r="40" fill="#cceeff" stroke="#00aaff" stroke-width="2"/><text x="40" y="40" text-anchor="middle" dominant-baseline="central" fill="#111111" font-size="14" font-family="system-ui, sans-serif">Start</text></g><g transform="translate(160, 19)" data-node-id="process"><rect x="0" y="0" width="104" height="42" rx="4" ry="4" fill="#ffffff" stroke="#222222" stroke-width="2"/><text x="52" y="21" text-anchor="middle" dominant-baseline="central" fill="#111111" font-size="14" font-family="system-ui, sans-serif">Do Thing</text></g><g transform="translate(344, 10.5)" data-node-id="check"><polygon points="39.5,0 79,29.5 39.5,59 0,29.5" fill="#fff8e1" stroke="#f9a825" stroke-width="2"/><text x="39.5" y="29.5" text-anchor="middle" dominant-baseline="central" fill="#111111" font-size="14" font-family="system-ui, sans-serif">OK</text></g><g transform="translate(503, 19)" data-node-id="done"><rect x="0" y="0" width="80" height="42" rx="21" ry="21" fill="#cceecc" stroke="#00aa00" stroke-width="2"/><text x="40" y="21" text-anchor="middle" dominant-baseline="central" fill="#111111" font-size="14" font-family="system-ui, sans-serif">Done</text></g><g transform="translate(463, 26)"><rect x="-18.5" y="-10" width="37" height="20" fill="white" stroke="#bbb" stroke-width="0.5" rx="3"/><text text-anchor="middle" dominant-baseline="central" fill="#333333" font-size="13" font-family="system-ui, sans-serif">yes</text></g><g transform="translate(304, 36)"><rect x="-15" y="-10" width="30" height="20" fill="white" stroke="#bbb" stroke-width="0.5" rx="3"/><text text-anchor="middle" dominant-baseline="central" fill="#333333" font-size="13" font-family="system-ui, sans-serif">no</text></g></svg>