<?xml version="1.0" encoding="UTF-8"?>
<svg viewBox="-40 -43.75 1023 296" style="max-width:100%" xmlns="http://www.w3.org/2000/svg"><rect x="-40" y="-43.75" width="1023" height="296" fill="white"/><defs><marker id="arrowhead" markerWidth="10" markerHeight="7" refX="0" refY="3.5" orient="auto" markerUnits="userSpaceOnUse"><polygon points="0 0, 10 3.5, 0 7" fill="#444444"/></marker><marker id="arrowhead-thick" markerWidth="14" markerHeight="10" refX="0" refY="5" orient="auto" markerUnits="userSpaceOnUse"><polygon points="0 0, 14 5, 0 10" fill="#444444"/></marker><marker id="arrowhead-reverse" markerWidth="10" markerHeight="7" refX="10" refY="3.5" orient="auto" markerUnits="userSpaceOnUse"><polygon points="10 0, 0 3.5, 10 7" fill="#444444"/></marker></defs><g><rect x="154" y="-3.75" width="605" height="216" fill="#f5f5f5" fill-opacity="1" stroke="#888888" stroke-width="1.5" stroke-dasharray="6 3" rx="8" ry="8"/><text x="164" y="12.25" fill="#555555" font-size="13" font-family="system-ui, sans-serif" font-weight="bold">write - check - render</text></g><path d="M 74 116.25 L 82.66666666666666 116.25 Q 91.33333333333333 116.25 100 116.25 Q 108.66666666666666 116.25 117.33333333333333 116.25 Q 126 116.25 134.66666666666666 116.25 Q 143.33333333333331 116.25 152 116.25 Q 160.66666666666669 116.25 164.33333333333334 116.25 L 168 116.25" fill="none" stroke="#444444" stroke-width="2" marker-end="url(#arrowhead)"/><path d="M 257.1951219512195 95.25 L 272.7642276422764 85.25 Q 288.3333333333333 75.25 297 75.25 Q 305.6666666666667 75.25 314.33333333333337 75.25 Q 323 75.25 331.66666666666663 75.25 Q 340.3333333333333 75.25 349 75.25 Q 357.6666666666667 75.25 361.33333333333337 75.25 L 365 75.25" fill="none" stroke="#444444" stroke-width="2" marker-end="url(#arrowhead)"/><path d="M 479.873320537428 69.13483685220729 L 494.60332693538066 67.19241842610364 Q 509.3333333333333 65.25 518 65.25 Q 526.6666666666666 65.25 535.3333333333333 65.25 Q 544 65.25 552.6666666666667 65.25 Q 561.3333333333334 65.25 570 65.25 Q 578.6666666666666 65.25 587.0833333333333 65.25 L 595.5 65.25" fill="none" stroke="#444444" stroke-width="2" marker-end="url(#arrowhead)"/><path d="M 458.5679601577091 92.10889188628346 L 483.9506467455212 109.17944594314173 Q 509.3333333333333 126.25 518 126.25 Q 526.6666666666666 126.25 535.3333333333333 126.25 Q 544 126.25 552.6666666666667 126.25 Q 561.3333333333334 126.25 570 126.25 Q 578.6666666666666 126.25 596.1781934956869 134.51839846437423 L 613.6897203247072 142.7867969287485" fill="none" stroke="#444444" stroke-width="2" marker-end="url(#arrowhead)"/><path d="M 612.5488635414055 179.7509400852344 L 595.607765104036 183.7504700426172 Q 578.6666666666666 187.75 570 187.75 Q 561.3333333333334 187.75 552.6666666666667 187.75 Q 544 187.75 535.3333333333333 187.75 Q 526.6666666666666 187.75 518 187.75 Q 509.3333333333333 187.75 471.41666666666663 187.75 Q 433.5 187.75 395.58333333333337 187.75 Q 357.6666666666667 187.75 349 187.75 Q 340.3333333333333 187.75 331.66666666666663 187.75 Q 323 187.75 314.33333333333337 187.75 Q 305.6666666666667 187.75 297 187.75 Q 288.3333333333333 187.75 269.1206986090241 166.22984256728813 L 249.90806388471492 144.70968513457626" fill="none" stroke="#444444" stroke-width="2" marker-end="url(#arrowhead)"/><path d="M 725.5 65.25 L 738.9166666666667 65.25 Q 752.3333333333334 65.25 761 65.25 Q 769.6666666666666 65.25 778.3333333333333 65.25 Q 787 65.25 795.6666666666667 65.25 Q 804.3333333333334 65.25 813 65.25 Q 821.6666666666666 65.25 825.3333333333333 65.25 L 829 65.25" fill="none" stroke="#444444" stroke-width="2" marker-end="url(#arrowhead)"/><g transform="translate(0, 79.25)" data-node-id="idea"><circle cx="37" cy="37" r="37" fill="#eeddff" stroke="#aa55ff" stroke-width="2"/><text x="37" y="37" text-anchor="middle" dominant-baseline="central" fill="#111111" font-size="14" font-family="system-ui, sans-serif">Idea</text></g><g transform="translate(178, 95.25)" data-node-id="draft"><rect x="0" y="0" width="93" height="42" rx="4" ry="4" fill="#cce7ff" stroke="#0088ff" stroke-width="2"/><text x="46.5" y="21" text-anchor="middle" dominant-baseline="central" fill="#111111" font-size="14" font-family="system-ui, sans-serif">Write .g</text></g><g transform="translate(375, 45.75)" data-node-id="check"><polygon points="58.5,0 117,29.5 58.5,59 0,29.5" fill="#ffeecc" stroke="#ffaa00" stroke-width="2"/><text x="58.5" y="29.5" text-anchor="middle" dominant-baseline="central" fill="#111111" font-size="14" font-family="system-ui, sans-serif">Valid?</text></g><g transform="translate(605.5, 44.25)" data-node-id="render"><rect x="0" y="0" width="120" height="42" rx="4" ry="4" fill="#cce7ff" stroke="#0088ff" stroke-width="2"/><text x="60" y="21" text-anchor="middle" dominant-baseline="central" fill="#111111" font-size="14" font-family="system-ui, sans-serif">Render SVG</text></g><g transform="translate(596, 146.25)" data-node-id="fix"><polygon points="27.8,0 111.2,0 139,21 111.2,42 27.8,42 0,21" fill="#ffdddd" stroke="#ff5555" stroke-width="2"/><text x="69.5" y="21" text-anchor="middle" dominant-baseline="central" fill="#111111" font-size="14" font-family="system-ui, sans-serif">Fix line 3</text></g><g transform="translate(839, 44.25)" data-node-id="ship"><rect x="0" y="0" width="104" height="42" rx="21" ry="21" fill="#cceedd" stroke="#00aa55" stroke-width="2"/><text x="52" y="21" text-anchor="middle" dominant-baseline="central" fill="#111111" font-size="14" font-family="system-ui, sans-serif">Shipped</text></g><g transform="translate(544, 51.25)"><rect x="-18.5" y="-10" width="37" height="20" fill="white" stroke="#bbb" stroke-width="0.5" rx="3"/><text text-anchor="middle" dominant-baseline="central" fill="#333333" font-size="13" font-family="system-ui, sans-serif">yes</text></g><g transform="translate(544, 112.25)"><rect x="-15" y="-10" width="30" height="20" fill="white" stroke="#bbb" stroke-width="0.5" rx="3"/><text text-anchor="middle" dominant-baseline="central" fill="#333333" font-size="13" font-family="system-ui, sans-serif">no</text></g></svg>