<svg viewBox="-40 -43 672 227" style="max-width:100%" xmlns="http://www.w3.org/2000/svg"><defs><marker id="arrowhead" markerWidth="10" markerHeight="7" refX="0" refY="3.5" orient="auto" markerUnits="userSpaceOnUse"><polygon points="0 0, 10 3.5, 0 7" fill="#444444"/></marker><marker id="arrowhead-thick" markerWidth="14" markerHeight="10" refX="0" refY="5" orient="auto" markerUnits="userSpaceOnUse"><polygon points="0 0, 14 5, 0 10" fill="#444444"/></marker><marker id="arrowhead-reverse" markerWidth="10" markerHeight="7" refX="10" refY="3.5" orient="auto" markerUnits="userSpaceOnUse"><polygon points="10 0, 0 3.5, 10 7" fill="#444444"/></marker></defs><path d="M 69.65879230542494 54.61025344776075 L 91.82939615271246 42.80512672388038 Q 114 31 129 31 L 144 31" fill="none" stroke="#444444" stroke-width="2" marker-end="url(#arrowhead)"/><path d="M 230 31 L 250 31 Q 270 31 285 31 L 300 31" fill="none" stroke="#444444" stroke-width="2" marker-end="url(#arrowhead)"/><path d="M 415.420137631293 26.085114089098152 L 440.21006881564654 23.542557044549078 Q 465 21 480 21 L 495 21" fill="none" stroke="#444444" stroke-width="2" marker-end="url(#arrowhead)"/><path d="M 395.97159457714656 45.89283408650742 L 430.4857972885733 63.94641704325371 Q 465 82 486.51185525913246 92.56270737274767 L 508.0237105182649 103.12541474549533" fill="none" stroke="#444444" stroke-width="2" marker-end="url(#arrowhead)"/><path d="M 517 126.77245508982035 L 491 129.88622754491018 Q 465 133 416.25 133 Q 367.5 133 318.75 133 Q 270 133 231 133 Q 192 133 153 133 Q 114 133 93.92022500186062 117.09264578069477 L 73.84045000372123 101.18529156138955" fill="none" stroke="#444444" stroke-width="2" marker-end="url(#arrowhead)"/><g transform="translate(0, 35)" data-node-id="push"><circle cx="37" cy="37" r="37" fill="#cceeff" stroke="#00aaff" stroke-width="2"/><text x="37" y="37" text-anchor="middle" dominant-baseline="central" fill="#111111" font-size="14" font-family="system-ui, sans-serif">Push</text></g><g transform="translate(154, 10)" data-node-id="build"><rect x="0" y="0" width="76" height="42" rx="4" ry="4" fill="#ffffff" stroke="#222222" stroke-width="2"/><text x="38" y="21" text-anchor="middle" dominant-baseline="central" fill="#111111" font-size="14" font-family="system-ui, sans-serif">Build</text></g><g transform="translate(310, 1.5)" data-node-id="test"><polygon points="57.5,0 115,29.5 57.5,59 0,29.5" fill="#fff8e1" stroke="#f9a825" stroke-width="2"/><text x="57.5" y="29.5" text-anchor="middle" dominant-baseline="central" fill="#111111" font-size="14" font-family="system-ui, sans-serif">Pass?</text></g><g transform="translate(505, 0)" data-node-id="deploy"><rect x="0" y="0" width="87" height="42" rx="4" ry="4" fill="#cceecc" stroke="#00aa00" stroke-width="2"/><text x="43.5" y="21" text-anchor="middle" dominant-baseline="central" fill="#111111" font-size="14" font-family="system-ui, sans-serif">Deploy</text></g><g transform="translate(517, 102)" data-node-id="fix"><rect x="0" y="0" width="63" height="42" rx="4" ry="4" fill="#ffdada" stroke="#ff4444" stroke-width="2"/><text x="31.5" y="21" text-anchor="middle" dominant-baseline="central" fill="#111111" font-size="14" font-family="system-ui, sans-serif">Fix</text></g><g transform="translate(465, 7)"><rect x="-18.5" y="-10" width="37" height="20" fill="white" stroke="#bbb" stroke-width="0.5" rx="3"/><text text-anchor="middle" dominant-baseline="central" fill="#333333" font-size="13" font-family="system-ui, sans-serif">yes</text></g><g transform="translate(465, 68)"><rect x="-15" y="-10" width="30" height="20" fill="white" stroke="#bbb" stroke-width="0.5" rx="3"/><text text-anchor="middle" dominant-baseline="central" fill="#333333" font-size="13" font-family="system-ui, sans-serif">no</text></g></svg>