<svg viewBox="-40 -44.25 1740 406.5" style="max-width:100%" xmlns="http://www.w3.org/2000/svg"><defs><marker id="arrowhead" markerWidth="10" markerHeight="7" refX="0" refY="3.5" orient="auto" markerUnits="userSpaceOnUse"><polygon points="0 0, 10 3.5, 0 7" fill="#444444"/></marker><marker id="arrowhead-thick" markerWidth="14" markerHeight="10" refX="0" refY="5" orient="auto" markerUnits="userSpaceOnUse"><polygon points="0 0, 14 5, 0 10" fill="#444444"/></marker><marker id="arrowhead-reverse" markerWidth="10" markerHeight="7" refX="10" refY="3.5" orient="auto" markerUnits="userSpaceOnUse"><polygon points="10 0, 0 3.5, 10 7" fill="#444444"/></marker></defs><g><rect x="153" y="-4.25" width="1254" height="182" fill="#f5f5f5" fill-opacity="1" stroke="#888888" stroke-width="1.5" stroke-dasharray="6 3" rx="8" ry="8"/><text x="163" y="11.75" fill="#555555" font-size="13" font-family="system-ui, sans-serif" font-weight="bold">auth</text></g><g><rect x="1463" y="-3.75" width="197" height="326" fill="#f5f5f5" fill-opacity="1" stroke="#888888" stroke-width="1.5" stroke-dasharray="6 3" rx="8" ry="8"/><text x="1473" y="12.25" fill="#555555" font-size="13" font-family="system-ui, sans-serif" font-weight="bold">outcomes</text></g><path d="M 73 124.25 L 81.66666666666666 124.25 Q 90.33333333333333 124.25 99 124.25 Q 107.66666666666666 124.25 116.33333333333333 124.25 Q 125 124.25 133.66666666666666 124.25 Q 142.33333333333331 124.25 151 124.25 Q 159.66666666666669 124.25 163.33333333333334 124.25 L 167 124.25" fill="none" stroke="#444444" stroke-width="2" marker-end="url(#arrowhead)"/><path d="M 314.2158273381295 103.25 L 333.2745803357314 96.375 Q 352.3333333333333 89.5 361 89.5 Q 369.6666666666667 89.5 378.33333333333337 89.5 Q 387 89.5 395.66666666666663 89.5 Q 404.3333333333333 89.5 413 89.5 Q 421.6666666666667 89.5 425.33333333333337 89.5 L 429 89.5" fill="none" stroke="#444444" stroke-width="2" marker-end="url(#arrowhead)"/><path d="M 538.554375531011 80.70263381478335 L 555.9438544321722 76.97631690739168 Q 573.3333333333334 73.25 582 73.25 Q 590.6666666666666 73.25 599.3333333333333 73.25 Q 608 73.25 616.6666666666667 73.25 Q 625.3333333333334 73.25 634 73.25 Q 642.6666666666666 73.25 646.3333333333333 73.25 L 650 73.25" fill="none" stroke="#444444" stroke-width="2" marker-end="url(#arrowhead)"/><path d="M 513.1998505425954 111.08298135031515 L 543.2665919379644 152.41649067515758 Q 573.3333333333334 193.75 582 193.75 Q 590.6666666666666 193.75 599.3333333333333 193.75 Q 608 193.75 616.6666666666667 193.75 Q 625.3333333333334 193.75 634 193.75 Q 642.6666666666666 193.75 699.8333333333333 193.75 Q 757 193.75 814.1666666666667 193.75 Q 871.3333333333334 193.75 880 193.75 Q 888.6666666666666 193.75 897.3333333333333 193.75 Q 906 193.75 914.6666666666667 193.75 Q 923.3333333333334 193.75 932 193.75 Q 940.6666666666666 193.75 986.8333333333333 193.75 Q 1033 193.75 1079.1666666666665 193.75 Q 1125.3333333333333 193.75 1134 193.75 Q 1142.6666666666667 193.75 1151.3333333333335 193.75 Q 1160 193.75 1168.6666666666665 193.75 Q 1177.3333333333333 193.75 1186 193.75 Q 1194.6666666666667 193.75 1246.0833333333335 193.75 Q 1297.5 193.75 1348.9166666666665 193.75 Q 1400.3333333333333 193.75 1409 193.75 Q 1417.6666666666667 193.75 1426.3333333333335 193.75 Q 1435 193.75 1443.6666666666665 193.75 Q 1452.3333333333333 193.75 1461 193.75 Q 1469.6666666666667 193.75 1481.93180329911 191.27916485262944 L 1494.196939931553 188.80832970525884" fill="none" stroke="#444444" stroke-width="2" marker-end="url(#arrowhead)"/><path d="M 820.3140562508064 63.00530576699781 L 845.8236947920699 58.877652883498904 Q 871.3333333333334 54.75 880 54.75 Q 888.6666666666666 54.75 897.3333333333333 54.75 Q 906 54.75 914.6666666666667 54.75 Q 923.3333333333334 54.75 932 54.75 Q 940.6666666666666 54.75 986.8333333333333 54.75 Q 1033 54.75 1079.1666666666665 54.75 Q 1125.3333333333333 54.75 1134 54.75 Q 1142.6666666666667 54.75 1151.3333333333335 54.75 Q 1160 54.75 1168.6666666666665 54.75 Q 1177.3333333333333 54.75 1186 54.75 Q 1194.6666666666667 54.75 1246.0833333333335 54.75 Q 1297.5 54.75 1348.9166666666665 54.75 Q 1400.3333333333333 54.75 1409 54.75 Q 1417.6666666666667 54.75 1426.3333333333335 54.75 Q 1435 54.75 1443.6666666666665 54.75 Q 1452.3333333333333 54.75 1461 54.75 Q 1469.6666666666667 54.75 1482.865699035931 56.2591452618215 L 1496.064731405195 57.768290523642996" fill="none" stroke="#444444" stroke-width="2" marker-end="url(#arrowhead)"/><path d="M 796.3234840441515 90.79079608966525 L 833.8284086887425 107.52039804483263 Q 871.3333333333334 124.25 880 124.25 Q 888.6666666666666 124.25 897.3333333333333 124.25 Q 906 124.25 914.6666666666667 124.25 Q 923.3333333333334 124.25 932 124.25 Q 940.6666666666666 124.25 944.3333333333333 124.25 L 948 124.25" fill="none" stroke="#444444" stroke-width="2" marker-end="url(#arrowhead)"/><path d="M 1108 124.25 L 1116.6666666666665 124.25 Q 1125.3333333333333 124.25 1134 124.25 Q 1142.6666666666667 124.25 1151.3333333333335 124.25 Q 1160 124.25 1168.6666666666665 124.25 Q 1177.3333333333333 124.25 1186 124.25 Q 1194.6666666666667 124.25 1198.3333333333335 124.25 L 1202 124.25" fill="none" stroke="#444444" stroke-width="2" marker-end="url(#arrowhead)"/><path d="M 1348.287838488337 112.27328930299346 L 1374.310585910835 106.13664465149674 Q 1400.3333333333333 100 1409 100 Q 1417.6666666666667 100 1426.3333333333335 100 Q 1435 100 1443.6666666666665 100 Q 1452.3333333333333 100 1461 100 Q 1469.6666666666667 100 1483.158738569759 94.89456081343974 L 1496.650810472851 89.78912162687948" fill="none" stroke="#444444" stroke-width="2" marker-end="url(#arrowhead)"/><path d="M 1356.1420570696462 133.51677563094083 L 1378.2376952014897 137.00838781547043 Q 1400.3333333333333 140.5 1409 140.5 Q 1417.6666666666667 140.5 1426.3333333333335 140.5 Q 1435 140.5 1443.6666666666665 140.5 Q 1452.3333333333333 140.5 1461 140.5 Q 1469.6666666666667 140.5 1483.158738569759 145.60543918656026 L 1496.650810472851 150.71087837312052" fill="none" stroke="#444444" stroke-width="2" marker-end="url(#arrowhead)"/><path d="M 1527.6666666666667 196.25 L 1498.6666666666667 214.25 Q 1469.6666666666667 232.25 1461 232.25 Q 1452.3333333333333 232.25 1443.6666666666665 232.25 Q 1435 232.25 1426.3333333333335 232.25 Q 1417.6666666666667 232.25 1409 232.25 Q 1400.3333333333333 232.25 1348.9166666666665 232.25 Q 1297.5 232.25 1246.0833333333335 232.25 Q 1194.6666666666667 232.25 1186 232.25 Q 1177.3333333333333 232.25 1168.6666666666665 232.25 Q 1160 232.25 1151.3333333333335 232.25 Q 1142.6666666666667 232.25 1134 232.25 Q 1125.3333333333333 232.25 1079.1666666666665 232.25 Q 1033 232.25 986.8333333333333 232.25 Q 940.6666666666666 232.25 932 232.25 Q 923.3333333333334 232.25 914.6666666666667 232.25 Q 906 232.25 897.3333333333333 232.25 Q 888.6666666666666 232.25 880 232.25 Q 871.3333333333334 232.25 814.1666666666667 232.25 Q 757 232.25 699.8333333333333 232.25 Q 642.6666666666666 232.25 634 232.25 Q 625.3333333333334 232.25 616.6666666666667 232.25 Q 608 232.25 599.3333333333333 232.25 Q 590.6666666666666 232.25 582 232.25 Q 573.3333333333334 232.25 535.4166666666667 232.25 Q 497.5 232.25 459.58333333333337 232.25 Q 421.6666666666667 232.25 413 232.25 Q 404.3333333333333 232.25 395.66666666666663 232.25 Q 387 232.25 378.33333333333337 232.25 Q 369.6666666666667 232.25 361 232.25 Q 352.3333333333333 232.25 316.8606549941093 192.48132255394955 L 281.38797665488534 152.71264510789914" fill="none" stroke="#444444" stroke-width="2" marker-end="url(#arrowhead)"/><g transform="translate(0, 87.75)" data-node-id="start"><circle cx="36.5" cy="36.5" r="36.5" fill="#ccffcc" stroke="#00ff00" stroke-width="2"/><text x="36.5" y="36.5" text-anchor="middle" dominant-baseline="central" fill="#111111" font-size="14" font-family="system-ui, sans-serif">Start</text></g><g transform="translate(177, 103.25)" data-node-id="login"><rect x="0" y="0" width="158" height="42" rx="4" ry="4" fill="#ffffff" stroke="#222222" stroke-width="2"/><text x="79" y="21" text-anchor="middle" dominant-baseline="central" fill="#111111" font-size="14" font-family="system-ui, sans-serif">Enter Credentials</text></g><g transform="translate(439, 60)" data-node-id="validate"><polygon points="58.5,0 117,29.5 58.5,59 0,29.5" fill="#fff8e1" stroke="#f9a825" stroke-width="2"/><text x="58.5" y="29.5" text-anchor="middle" dominant-baseline="central" fill="#111111" font-size="14" font-family="system-ui, sans-serif">Valid?</text></g><g transform="translate(660, 43.75)" data-node-id="mfa"><polygon points="97,0 194,29.5 97,59 0,29.5" fill="#fff8e1" stroke="#f9a825" stroke-width="2"/><text x="97" y="29.5" text-anchor="middle" dominant-baseline="central" fill="#111111" font-size="14" font-family="system-ui, sans-serif">MFA Enabled?</text></g><g transform="translate(958, 103.25)" data-node-id="verify"><rect x="0" y="0" width="150" height="42" rx="4" ry="4" fill="#ffffff" stroke="#222222" stroke-width="2"/><text x="75" y="21" text-anchor="middle" dominant-baseline="central" fill="#111111" font-size="14" font-family="system-ui, sans-serif">Enter MFA Code</text></g><g transform="translate(1212, 94.75)" data-node-id="mfa_check"><polygon points="85.5,0 171,29.5 85.5,59 0,29.5" fill="#fff8e1" stroke="#f9a825" stroke-width="2"/><text x="85.5" y="29.5" text-anchor="middle" dominant-baseline="central" fill="#111111" font-size="14" font-family="system-ui, sans-serif">Code Valid?</text></g><g transform="translate(1506, 44.25)" data-node-id="dashboard"><rect x="0" y="0" width="111" height="42" rx="4" ry="4" fill="#cceeff" stroke="#00aaff" stroke-width="2"/><text x="55.5" y="21" text-anchor="middle" dominant-baseline="central" fill="#111111" font-size="14" font-family="system-ui, sans-serif">Dashboard</text></g><g transform="translate(1504, 154.25)" data-node-id="retry"><rect x="0" y="0" width="115" height="42" rx="4" ry="4" fill="#ffffff" stroke="#222222" stroke-width="2"/><text x="57.5" y="21" text-anchor="middle" dominant-baseline="central" fill="#111111" font-size="14" font-family="system-ui, sans-serif">Show Error</text></g><g transform="translate(1487, 256.25)" data-node-id="lockout"><rect x="0" y="0" width="149" height="42" rx="4" ry="4" fill="#ffcccc" stroke="#ff0000" stroke-width="2"/><text x="74.5" y="21" text-anchor="middle" dominant-baseline="central" fill="#111111" font-size="14" font-family="system-ui, sans-serif">Account Locked</text></g><g transform="translate(608, 59.25)"><rect x="-18.5" y="-10" width="37" height="20" fill="white" stroke="#bbb" stroke-width="0.5" rx="3"/><text text-anchor="middle" dominant-baseline="central" fill="#333333" font-size="13" font-family="system-ui, sans-serif">yes</text></g><g transform="translate(1033, 179.75)"><rect x="-15" y="-10" width="30" height="20" fill="white" stroke="#bbb" stroke-width="0.5" rx="3"/><text text-anchor="middle" dominant-baseline="central" fill="#333333" font-size="13" font-family="system-ui, sans-serif">no</text></g><g transform="translate(1160, 40.75)"><rect x="-15" y="-10" width="30" height="20" fill="white" stroke="#bbb" stroke-width="0.5" rx="3"/><text text-anchor="middle" dominant-baseline="central" fill="#333333" font-size="13" font-family="system-ui, sans-serif">no</text></g><g transform="translate(906, 110.25)"><rect x="-18.5" y="-10" width="37" height="20" fill="white" stroke="#bbb" stroke-width="0.5" rx="3"/><text text-anchor="middle" dominant-baseline="central" fill="#333333" font-size="13" font-family="system-ui, sans-serif">yes</text></g><g transform="translate(1435, 86)"><rect x="-18.5" y="-10" width="37" height="20" fill="white" stroke="#bbb" stroke-width="0.5" rx="3"/><text text-anchor="middle" dominant-baseline="central" fill="#333333" font-size="13" font-family="system-ui, sans-serif">yes</text></g><g transform="translate(1435, 126.5)"><rect x="-15" y="-10" width="30" height="20" fill="white" stroke="#bbb" stroke-width="0.5" rx="3"/><text text-anchor="middle" dominant-baseline="central" fill="#333333" font-size="13" font-family="system-ui, sans-serif">no</text></g><g transform="translate(906, 218.25)"><rect x="-25.5" y="-10" width="51" height="20" fill="white" stroke="#bbb" stroke-width="0.5" rx="3"/><text text-anchor="middle" dominant-baseline="central" fill="#333333" font-size="13" font-family="system-ui, sans-serif">retry</text></g></svg>