<svg viewBox="-40 -40 669 153" style="max-width:100%" xmlns="http://www.w3.org/2000/svg"><defs><marker id="arrowhead" markerWidth="10" markerHeight="7" refX="0" refY="3.5" orient="auto" markerUnits="userSpaceOnUse"><polygon points="0 0, 10 3.5, 0 7" fill="#444444"/></marker><marker id="arrowhead-thick" markerWidth="14" markerHeight="10" refX="0" refY="5" orient="auto" markerUnits="userSpaceOnUse"><polygon points="0 0, 14 5, 0 10" fill="#444444"/></marker><marker id="arrowhead-reverse" markerWidth="10" markerHeight="7" refX="10" refY="3.5" orient="auto" markerUnits="userSpaceOnUse"><polygon points="10 0, 0 3.5, 10 7" fill="#444444"/></marker></defs><path d="M 73 36.5 L 93 36.5 Q 113 36.5 128 36.5 L 143 36.5" fill="none" stroke="#444444" stroke-width="2" marker-end="url(#arrowhead)"/><path d="M 254 30.91988950276243 L 274 28.709944751381215 Q 294 26.5 312.67011723433023 28.645990486704626 L 331.34023446866047 30.79198097340925" fill="none" stroke="#444444" stroke-width="2" marker-end="url(#arrowhead)"/><path d="M 428 36.5 L 448 36.5 Q 468 36.5 483 36.5 L 498 36.5" fill="none" stroke="#444444" stroke-width="2" marker-end="url(#arrowhead)"/><path d="M 341.2748229869916 41.06611230034579 L 317.6374114934958 43.7830561501729 Q 294 46.5 278.9697526034661 44.83919918270344 L 263.9395052069322 43.17839836540687" fill="none" stroke="#444444" stroke-width="2" marker-end="url(#arrowhead)"/><g transform="translate(0, 0)" data-node-id="start"><circle cx="36.5" cy="36.5" r="36.5" fill="#cceeff" stroke="#00aaff" stroke-width="2"/><text x="36.5" y="36.5" text-anchor="middle" dominant-baseline="central" fill="#111111" font-size="14" font-family="system-ui, sans-serif">Start</text></g><g transform="translate(153, 15.5)" data-node-id="process"><rect x="0" y="0" width="101" height="42" rx="4" ry="4" fill="#ffffff" stroke="#222222" stroke-width="2"/><text x="50.5" y="21" text-anchor="middle" dominant-baseline="central" fill="#111111" font-size="14" font-family="system-ui, sans-serif">Do Thing</text></g><g transform="translate(334, 7)" data-node-id="check"><polygon points="47,0 94,29.5 47,59 0,29.5" fill="#fff8e1" stroke="#f9a825" stroke-width="2"/><text x="47" y="29.5" text-anchor="middle" dominant-baseline="central" fill="#111111" font-size="14" font-family="system-ui, sans-serif">OK?</text></g><g transform="translate(508, 15.5)" data-node-id="done"><rect x="0" y="0" width="81" height="42" rx="21" ry="21" fill="#cceecc" stroke="#00aa00" stroke-width="2"/><text x="40.5" y="21" text-anchor="middle" dominant-baseline="central" fill="#111111" font-size="14" font-family="system-ui, sans-serif">Done</text></g><g transform="translate(468, 22.5)"><rect x="-18.5" y="-10" width="37" height="20" fill="white" stroke="#bbb" stroke-width="0.5" rx="3"/><text text-anchor="middle" dominant-baseline="central" fill="#333333" font-size="13" font-family="system-ui, sans-serif">yes</text></g><g transform="translate(294, 32.5)"><rect x="-15" y="-10" width="30" height="20" fill="white" stroke="#bbb" stroke-width="0.5" rx="3"/><text text-anchor="middle" dominant-baseline="central" fill="#333333" font-size="13" font-family="system-ui, sans-serif">no</text></g></svg>