<svg viewBox="-24 -48 1220 785" style="max-width:100%" xmlns="http://www.w3.org/2000/svg"><defs><marker id="arrowhead" markerWidth="10" markerHeight="7" refX="0" refY="3.5" orient="auto" markerUnits="userSpaceOnUse"><polygon points="0 0, 10 3.5, 0 7" fill="#444444"/></marker><marker id="arrowhead-thick" markerWidth="14" markerHeight="10" refX="0" refY="5" orient="auto" markerUnits="userSpaceOnUse"><polygon points="0 0, 14 5, 0 10" fill="#444444"/></marker><marker id="arrowhead-reverse" markerWidth="10" markerHeight="7" refX="10" refY="3.5" orient="auto" markerUnits="userSpaceOnUse"><polygon points="10 0, 0 3.5, 10 7" fill="#444444"/></marker></defs><g><rect x="16" y="-8" width="181" height="385" fill="#f5f5f5" fill-opacity="1" stroke="#888888" stroke-width="1.5" stroke-dasharray="6 3" rx="8" ry="8"/><text x="26" y="8" fill="#555555" font-size="13" font-family="system-ui, sans-serif" font-weight="bold">The problem</text></g><g><rect x="249" y="212.5" width="193" height="344.5" fill="#f5f5f5" fill-opacity="1" stroke="#888888" stroke-width="1.5" stroke-dasharray="6 3" rx="8" ry="8"/><text x="259" y="228.5" fill="#555555" font-size="13" font-family="system-ui, sans-serif" font-weight="bold">The solution</text></g><g><rect x="494" y="230.5" width="662" height="114" fill="#f5f5f5" fill-opacity="1" stroke="#888888" stroke-width="1.5" stroke-dasharray="6 3" rx="8" ry="8"/><text x="504" y="246.5" fill="#555555" font-size="13" font-family="system-ui, sans-serif" font-weight="bold">Renders everywhere</text></g><path d="M 106.5 118 L 106.5 128.66666666666669 Q 106.5 139.33333333333334 106.5 150 Q 106.5 160.66666666666666 106.5 171.33333333333331 Q 106.5 182 106.5 192.66666666666666 Q 106.5 203.33333333333331 106.5 214 Q 106.5 224.66666666666669 106.5 230.33333333333334 L 106.5 236" fill="none" stroke="#444444" stroke-width="2" marker-end="url(#arrowhead)"/><path d="M 661.7876430786966 88.71612431720239 L 503.6438215393483 114.02472882526786 Q 345.5 139.33333333333334 345.5 150 Q 345.5 160.66666666666666 345.5 171.33333333333331 Q 345.5 182 345.5 192.66666666666666 Q 345.5 203.33333333333331 345.5 214 Q 345.5 224.66666666666669 345.5 237.58333333333334 L 345.5 250.5" fill="none" stroke="#444444" stroke-width="2" marker-end="url(#arrowhead)"/><path d="M 345.5 338.5 L 345.5 354.41666666666663 Q 345.5 370.3333333333333 345.5 379 Q 345.5 387.6666666666667 345.5 396.33333333333337 Q 345.5 405 345.5 413.66666666666663 Q 345.5 422.3333333333333 345.5 431 Q 345.5 439.6666666666667 345.5 443.33333333333337 L 345.5 447" fill="none" stroke="#444444" stroke-width="2" marker-end="url(#arrowhead)"/><path d="M 673.863633438031 97.22605040935072 L 617.6818167190155 118.27969187134204 Q 561.5 139.33333333333334 561.5 150 Q 561.5 160.66666666666666 561.5 171.33333333333331 Q 561.5 182 561.5 192.66666666666666 Q 561.5 203.33333333333331 561.5 214 Q 561.5 224.66666666666669 561.5 246.58333333333334 L 561.5 268.5" fill="none" stroke="#444444" stroke-width="2" marker-end="url(#arrowhead)"/><path d="M 722.5 100 L 722.5 119.66666666666667 Q 722.5 139.33333333333334 722.5 150 Q 722.5 160.66666666666666 722.5 171.33333333333331 Q 722.5 182 722.5 192.66666666666666 Q 722.5 203.33333333333331 722.5 214 Q 722.5 224.66666666666669 722.5 246.58333333333334 L 722.5 268.5" fill="none" stroke="#444444" stroke-width="2" marker-end="url(#arrowhead)"/><path d="M 774.3104859883797 94.98925484040362 L 846.1552429941898 117.16129408686848 Q 918 139.33333333333334 918 150 Q 918 160.66666666666666 918 171.33333333333331 Q 918 182 918 192.66666666666666 Q 918 203.33333333333331 918 214 Q 918 224.66666666666669 918 246.58333333333334 L 918 268.5" fill="none" stroke="#444444" stroke-width="2" marker-end="url(#arrowhead)"/><path d="M 783.0464645482546 88.83302833847831 L 938.5232322741273 114.08318083590584 Q 1094 139.33333333333334 1094 150 Q 1094 160.66666666666666 1094 171.33333333333331 Q 1094 182 1094 192.66666666666666 Q 1094 203.33333333333331 1094 214 Q 1094 224.66666666666669 1094 246.58333333333334 L 1094 268.5" fill="none" stroke="#444444" stroke-width="2" marker-end="url(#arrowhead)"/><path d="M 722.5 320.5 L 722.5 345.41666666666663 Q 722.5 370.3333333333333 722.5 379 Q 722.5 387.6666666666667 722.5 396.33333333333337 Q 722.5 405 722.5 413.66666666666663 Q 722.5 422.3333333333333 722.5 431 Q 722.5 439.6666666666667 722.5 447.58333333333337 L 722.5 455.5" fill="none" stroke="#444444" stroke-width="2" marker-end="url(#arrowhead)"/><path d="M 722.5 524.5 L 722.5 537.4166666666667 Q 722.5 550.3333333333334 722.5 559 Q 722.5 567.6666666666666 722.5 576.3333333333333 Q 722.5 585 722.5 593.6666666666667 Q 722.5 602.3333333333334 722.5 611 Q 722.5 619.6666666666666 722.5 623.3333333333333 L 722.5 627" fill="none" stroke="#444444" stroke-width="2" marker-end="url(#arrowhead)"/><g transform="translate(648, 58)" data-node-id="glypho"><polygon points="29.8,0 119.2,0 149,21 119.2,42 29.8,42 0,21" fill="#ffebcc" stroke="#ff9900" stroke-width="2"/><text x="74.5" y="21" text-anchor="middle" dominant-baseline="central" fill="#111111" font-size="14" font-family="system-ui, sans-serif">Glypho (.g)</text></g><g transform="translate(40, 40)" data-node-id="verbose"><rect x="0" y="0" width="133" height="78" rx="4" ry="4" fill="#ffffff" stroke="#222222" stroke-width="2"/><text x="66.5" y="21" text-anchor="middle" dominant-baseline="central" fill="#111111" font-size="14" font-family="system-ui, sans-serif">JSON Canvas</text><text x="66.5" y="39" text-anchor="middle" dominant-baseline="central" fill="#111111" font-size="14" font-family="system-ui, sans-serif">Mermaid</text><text x="66.5" y="57" text-anchor="middle" dominant-baseline="central" fill="#111111" font-size="14" font-family="system-ui, sans-serif">Graphviz DOT</text></g><g transform="translate(53, 246)" data-node-id="tokens"><circle cx="53.5" cy="53.5" r="53.5" fill="#ffdada" stroke="#ff4444" stroke-width="2"/><text x="53.5" y="44.5" text-anchor="middle" dominant-baseline="central" fill="#111111" font-size="14" font-family="system-ui, sans-serif">Too many</text><text x="53.5" y="62.5" text-anchor="middle" dominant-baseline="central" fill="#111111" font-size="14" font-family="system-ui, sans-serif">tokens</text></g><g transform="translate(273, 260.5)" data-node-id="compact"><rect x="0" y="0" width="145" height="78" rx="4" ry="4" fill="#cceeff" stroke="#00aaff" stroke-width="2"/><text x="72.5" y="21" text-anchor="middle" dominant-baseline="central" fill="#111111" font-size="14" font-family="system-ui, sans-serif">6 shapes</text><text x="72.5" y="39" text-anchor="middle" dominant-baseline="central" fill="#111111" font-size="14" font-family="system-ui, sans-serif">5 edges</text><text x="72.5" y="57" text-anchor="middle" dominant-baseline="central" fill="#111111" font-size="14" font-family="system-ui, sans-serif">groups + styles</text></g><g transform="translate(307.5, 457)" data-node-id="efficient"><circle cx="38" cy="38" r="38" fill="#ccf5e0" stroke="#00cc66" stroke-width="2"/><text x="38" y="38" text-anchor="middle" dominant-baseline="central" fill="#111111" font-size="14" font-family="system-ui, sans-serif">~20%</text></g><g transform="translate(518, 278.5)" data-node-id="react"><rect x="0" y="0" width="87" height="42" rx="21" ry="21" fill="#e0cff8" stroke="#6611dd" stroke-width="2"/><text x="43.5" y="21" text-anchor="middle" dominant-baseline="central" fill="#111111" font-size="14" font-family="system-ui, sans-serif">React</text></g><g transform="translate(665, 278.5)" data-node-id="svg"><rect x="0" y="0" width="115" height="42" rx="21" ry="21" fill="#ffebcc" stroke="#ff9900" stroke-width="2"/><text x="57.5" y="21" text-anchor="middle" dominant-baseline="central" fill="#111111" font-size="14" font-family="system-ui, sans-serif">Pure SVG</text></g><g transform="translate(840, 278.5)" data-node-id="any"><rect x="0" y="0" width="156" height="42" rx="21" ry="21" fill="#eedaff" stroke="#aa44ff" stroke-width="2"/><text x="78" y="21" text-anchor="middle" dominant-baseline="central" fill="#111111" font-size="14" font-family="system-ui, sans-serif">Any framework</text></g><g transform="translate(1056, 278.5)" data-node-id="cli"><rect x="0" y="0" width="76" height="42" rx="21" ry="21" fill="#e7e7e7" stroke="#888888" stroke-width="2"/><text x="38" y="21" text-anchor="middle" dominant-baseline="central" fill="#111111" font-size="14" font-family="system-ui, sans-serif">CLI</text></g><g transform="translate(614, 465.5)" data-node-id="nodom"><polygon points="108.5,0 217,29.5 108.5,59 0,29.5" fill="#ccf5e0" stroke="#00cc66" stroke-width="2"/><text x="108.5" y="29.5" text-anchor="middle" dominant-baseline="central" fill="#111111" font-size="14" font-family="system-ui, sans-serif">No DOM needed?</text></g><g transform="translate(648, 637)" data-node-id="nodom_yes"><rect x="0" y="0" width="149" height="60" rx="4" ry="4" fill="#ccf5e0" stroke="#00cc66" stroke-width="2"/><text x="74.5" y="21" text-anchor="middle" dominant-baseline="central" fill="#111111" font-size="14" font-family="system-ui, sans-serif">Pure function</text><text x="74.5" y="39" text-anchor="middle" dominant-baseline="central" fill="#111111" font-size="14" font-family="system-ui, sans-serif">text in, SVG out</text></g><g transform="translate(106.5, 168)"><rect x="-32.5" y="-10" width="65" height="20" fill="white" stroke="#bbb" stroke-width="0.5" rx="3"/><text text-anchor="middle" dominant-baseline="central" fill="#333333" font-size="13" font-family="system-ui, sans-serif">bloated</text></g><g transform="translate(345.5, 168)"><rect x="-32.5" y="-10" width="65" height="20" fill="white" stroke="#bbb" stroke-width="0.5" rx="3"/><text text-anchor="middle" dominant-baseline="central" fill="#333333" font-size="13" font-family="system-ui, sans-serif">concise</text></g><g transform="translate(345.5, 391)"><rect x="-43" y="-10" width="86" height="20" fill="white" stroke="#bbb" stroke-width="0.5" rx="3"/><text text-anchor="middle" dominant-baseline="central" fill="#333333" font-size="13" font-family="system-ui, sans-serif">token cost</text></g><g transform="translate(722.5, 571)"><rect x="-18.5" y="-10" width="37" height="20" fill="white" stroke="#bbb" stroke-width="0.5" rx="3"/><text text-anchor="middle" dominant-baseline="central" fill="#333333" font-size="13" font-family="system-ui, sans-serif">yes</text></g></svg>